<svg id="illustration" xmlns="http://www.w3.org/2000/svg" xmlns:xlink="http://www.w3.org/1999/xlink" viewBox="0 0 1170 350"><style>.st0{fill:#a2a1a1}.st1{fill:#cececd}.st2{fill:#dddddc}.st5{fill:#d1a1b8}.st6{fill:#a688ba}.st8{fill:#a0cf7e}.st9{fill:#709d53}.st10{fill:#e5c828}.st11{fill:#73cfe5}.st13{fill:#ccad14}.st14{fill:none;stroke:#a3a3a3;stroke-miterlimit:10}.st16{fill:#828282}.st17{fill:#a3a3a3}.st18{fill:#ececeb}.st20,.st22{fill-rule:evenodd;clip-rule:evenodd;fill:#a688ba}.st22{fill:#765d89}.st23{fill:#99c26d}.st24{display:none;fill:none;stroke:#ad889d;stroke-width:2;stroke-miterlimit:10}.st25,.st26{display:none;fill-rule:evenodd;clip-rule:evenodd;fill:#ad889d}.st26{fill:#f5f5f5}.st27{fill:#707274}.st28{opacity:.1;fill:#2a2b2a}.st31{fill:#795d88}.st33{fill:#93d4d5}.st37{fill:#b3889d}.st40{fill:#2b2b2b}.st40,.st41,.st42{fill-rule:evenodd;clip-rule:evenodd}.st41{opacity:.102}.st42{fill:#a3a3a3}.st44,.st45,.st46,.st47,.st48,.st49{fill-rule:evenodd;clip-rule:evenodd;fill:#8f8f8f}.st45,.st46,.st47,.st48,.st49{fill:#72584c}.st46,.st47,.st48,.st49{fill:#997462}.st47,.st48,.st49{fill:#ececeb}.st48,.st49{fill:#f4d75d}.st49{fill:#ccad14}.st50,.st51,.st52,.st53,.st54,.st55{fill-rule:evenodd;clip-rule:evenodd;fill:#e5c828}.st51,.st52,.st53,.st54,.st55{fill:#545454}.st52,.st53,.st54,.st55{fill:#af8f82}.st53,.st54,.st55{fill:#474747}.st54,.st55{fill:#ba988a}.st55{fill:#fff}.st56{opacity:.1}.st57{fill:#165e60}.st58{fill:#754c3d}.st59{fill:#553528}.st60{fill:#1c7678}.st61{fill:#2b2b2b}.st62{fill:#2d201e}.st64{fill:#543042}.st65{fill:#96637c}.st67{fill:#9e7700}.st68{fill:#e2a942}.st69{fill:#369496}.st73{fill:#d9e354}.st74{fill:#ad7e5e}.st75{fill:#8e6e51}.st76{fill:#d1a078}.st77{fill:#72cbcc}.st78{fill:#8ce0dc}.st79{fill:#e8f078}.st80{fill:#3f342d}.st81{fill:#b8c745}.st82{fill:#dbad89}.st83{fill:#734d60}.st86,.st90,.st91{fill-rule:evenodd;clip-rule:evenodd;fill:#165e60}.st90,.st91{fill:#6f7173}.st91{fill:#e5c4a3}.st92,.st93,.st94,.st95,.st96,.st98{fill-rule:evenodd;clip-rule:evenodd;fill:#4f5253}.st93,.st94,.st95,.st96,.st98{fill:#dddddc}.st94,.st95,.st96,.st98{fill:#cca376}.st95,.st96,.st98{fill:#996f45}.st96,.st98{fill:#cececd}.st98{fill:#734d60}.st101{fill:#6f7173}.st102,.st103,.st105{fill:none;stroke:#50a9aa;stroke-width:6;stroke-miterlimit:10}.st103,.st105{stroke-width:4}.st105{stroke:#72cbcc;stroke-width:6}.st105,.st106,.st107,.st108{fill-rule:evenodd;clip-rule:evenodd}.st106{stroke:#4f5253;stroke-width:6;stroke-miterlimit:10;fill:none}.st107,.st108{fill:#3aa0ba}.st108{fill:#5ec0d9}.st112,.st113,.st116,.st117,.st120,.st121{fill-rule:evenodd;clip-rule:evenodd;fill:#73cfe5}.st113,.st116,.st117,.st120,.st121{fill:#9fa0a0}.st116,.st117,.st120,.st121{fill:#cdcccb}.st117,.st120,.st121{fill:#2a2b2a}.st120,.st121{fill:#755800}.st121{fill:#856400}.st123{fill:#f5cab3}.st124{fill:#c4937d}.st125{fill:#947346}.st126{fill:#b79260}.st127{fill:#f7dbcb}.st131{fill:#2b2b2b;fill-opacity:.102}.st132{fill:#f2bd68}.st133{fill:#ffe6d6}.st134{fill:#d6af74}.st135{fill:#fff}.st138{fill:#f2d5bc}.st139{fill:#4f5253}.st140{fill:#474747}.st141{fill:#318fa6}.st142{fill:#27788c}.st143{fill:#e1b795}.st144{fill:#b48972}.st145{fill:none}.st147{fill:#bc8f2d}.st150,.st151,.st155{fill-rule:evenodd;clip-rule:evenodd;fill:#f2d5bc}.st151,.st155{fill:#e1b795}.st155{fill:#e3d187}.st157,.st158,.st161,.st162,.st165,.st168{fill-rule:evenodd;clip-rule:evenodd;fill:#d4c280}.st158,.st161,.st162,.st165,.st168{fill:#ffe6d6}.st161,.st162,.st165,.st168{fill:#c4937d}.st162,.st165,.st168{fill:#f5eda6}.st165,.st168{fill:#fff7ad}.st168{fill:#c2b075}.st171{fill:#553042}.st173{fill:#5e3a4c}.st174{fill:#99657c}.st175{fill:#9076a0}.st176{fill:#6d557b}.st178{fill:#fdede9}.st179{fill:#eecfcb}.st182{fill:#bfa96b}.st183{fill:#c69a7b}.st184{fill:#9e7157}.st185{fill:#706154}.st186{fill:#e1bb9c}.st187{fill:#8c7a6e}.st189{fill:#61544a}.st190{fill:#544538}.st191,.st192,.st193,.st194{fill-rule:evenodd;clip-rule:evenodd;fill:#543042}.st192,.st193,.st194{fill:#734d61}.st193,.st194{fill:#c69a7b}.st194{fill:#709d53}.st195,.st196,.st197,.st200,.st201,.st204{fill-rule:evenodd;clip-rule:evenodd;fill:#bf8f00}.st196,.st197,.st200,.st201,.st204{fill:#99c26d}.st197,.st200,.st201,.st204{fill:#738d56}.st200,.st201,.st204{fill:#446125}.st201,.st204{fill:#5a753d}.st204{fill:#e1bb9c}.st208{fill:#c4c4c4}.st210,.st212{opacity:.6;fill:#27788c}.st212{fill:#dddddc}</style><g id="wall"><path class="st0" d="M31.7 299L1.6 288.7 12.1 18.2 29.1 4l21 196.5z"/><path class="st1" d="M753.2 43.6l-409.9-3.3-3.8 187.3 412.1-1.6z"/><path class="st2" d="M29.1 4l2.6 295 307.8-71.4 3.8-187.3z"/><g><path fill="#72c9a6" d="M255.1 107.9l-24.4-49.1 48.3 2z"/><path fill="#54b08b" d="M256.1 59.9l-.7 47.8 23.8-46.9z"/><path class="st5" d="M240.2 159c-5.5-9.1-14.8-12.3-23.3-9 1.3-5.7 4.1-11 8.2-15 9.8-9.5 23.4-7.7 30.6 4 7.3 11.9 5.2 29.4-4.7 39.2-2.3 2.3-4.8 3.9-7.4 4.9 1.8-8.3.8-17.2-3.4-24.1z"/><path class="st6" d="M220 173.7c5.4 9.3 14.9 12.7 23.6 9.3-1.3 5.9-4.1 11.4-8.3 15.5-10 9.8-23.9 7.7-30.9-4.6-6.9-12.1-4.5-29.6 5.3-39.1 2.3-2.2 4.7-3.8 7.3-4.8-2 8-1.1 16.7 3 23.7z"/><path d="M220 173.7c-4.1-7-5-15.7-3.1-23.7 8.5-3.3 17.8-.2 23.3 9 4.2 7 5.2 15.9 3.4 24-8.7 3.4-18.1 0-23.6-9.3z" fill="#785d88"/><path class="st8" d="M98 48.7c-2.8 0-5.5.3-8.1 1C93.4 36 105.7 26.3 120 26.9c16.2.6 28.7 14.4 28.7 30.6 0 13.6-8.7 25.4-21 29.3.6-2.5.9-5 .9-7.6-.1-16.7-13.5-30.4-30.6-30.5z"/><path class="st5" d="M89.9 49.7c-.7 2.6-1 5.3-1 8.1.2 17.6 14.5 31.1 31.3 30.3 2.6-.1 5.1-.6 7.4-1.3-3.2 13.1-14.8 23.5-29.1 24.7-17.9 1.5-33.2-11.9-33.4-30-.2-15.4 10.5-28.3 24.8-31.8z"/><path class="st9" d="M88.9 57.8c0-2.8.3-5.5 1-8.1 2.6-.7 5.3-1 8.1-1 17.1.1 30.5 13.8 30.6 30.4 0 2.6-.3 5.2-.9 7.6-2.4.8-4.8 1.2-7.4 1.3-16.9.9-31.3-12.6-31.4-30.2z"/><path class="st10" d="M139.3 134.4l28.6 50.5L108 195z"/><path class="st11" d="M163.9 129.8l45.9-3.5.5-51.1-46.2-.5z"/><path fill="#5ec0d9" d="M209.8 126.3l-45.7-51.6 46.2.5z"/><path class="st13" d="M139.3 134.4v55.2l28.6-4.7z"/></g><g><path class="st14" d="M58.6 132.3l43.7-4.4M257 200.8l.5-19M58.4 142.8l43.7-5M58.2 153.3l43.7-5.5M58 163.7l43.7-6M134.5 207l35-6.7M134.3 216.4l35-7.2M134.1 225.7l35-7.7M133.9 235l34.9-8.1M172.6 38l29.9 2.1M172.4 46.8l29.9 1.6M172.1 55.5l29.9 1.3M171.9 64.2l29.9.9M243.7 211.3l25.4-4.5M243.5 219.2l25.4-4.8M243.3 227.1l25.4-5.1M243.1 235.1l25.4-5.5M273.6 95.4l22.7-.5M273.4 102.9l22.7-.7M273.2 110.5l22.7-1M273 118l22.6-1.3"/></g></g><g id="map"><path class="st16" d="M1051.1 293l24.1-5.2-6-28.6-19.9-2.5z"/><path class="st17" d="M1019.3 257.8l-5.3 32.8 37.1 2.4.4-36.3z"/><path class="st16" d="M798.8 264l24.1-5.1-6-28.7-19.8-2.4z"/><path class="st17" d="M767 228.8l-5.3 32.9 37.1 2.3.4-36.3zM1146.7 1.5l16.8 31.5 6.4 234.3-43.5 6.2-6.5-7.9 5.2-5.2 22.4-13.1-12.4-126z"/><path class="st18" d="M741.2 32.9l-2.8 170.5 411.1 45.7-2.8-247.6z"/><path class="st2" d="M1125.1 260.4l-416.9-44.9 30.2-12.1 411.1 45.7z"/><path fill="#8f8f8f" d="M1125.1 260.4l-416.9-44.9.2 12.3 418 45.7z"/><path class="st20" d="M772.1 66.1l13.4-5.5 14.3 2.1 21.4-2-6.8-5.8 6.1-4.4 24.9 2.2-6.1 8.1 7.3-.6 12-8.9L879.7 62l-2.3 6.2-11.5-.4-.4-4.5-17.7 9.5 15.1 9 2.6-10.4 15.4 1 10.6 11.9-15.6 9.8-9.2 15.3-15.2 1.4-.7 13.2 9.7-4.5 22.5 21.7-29.3-14.4-8.2.9-22-19.7-6.1-2.1-4.7-16.4-18.1-7.6-18 5.7-1-7.1-4.6-.8z"/><path class="st20" d="M878.3 137.1l6.6-5 22.6 6.1 3.7 6.5 19.1 5.2-6.9 19.2-16.6 15.1-9.3 14.2 2.1 7.8-8.8-2.8-1.5-13.5 2-21.1-8.1-5.2-6.4-15 2.5-8.3zM964.9 96l-.9 3.4 11.5 4.2 4-3.4 11.1.1 2.6 14 8.5 9.7 7.7-2.7-1.6 11.5-8.8 7.5 3 11.5-10.6 21-9.6 3.6-9.7-20.7 1.6-4.8-7.5-18.2-7.8-1.1-9.2 4.4-11-10.4 2-15.6 6.4-10.1z"/><path class="st20" d="M947.1 98.9l6.1-3.8 2.9-5.4 5.8-.9 7.3 5.2 3-1.2 3.2 4.1 5-4.3 10.4 2.5-1.4 6 11.9 19.2 15.8-11.6-6.6-2.9-7.1-3.1 2.3-2.6 9.3 4.7 14 6 6.5 14.3 3.9-2.5 5-13.5h5.4L1063 123l4.4-5.7-3.4-9.2 10-2.9 4.7-7.6-4.8-10.1 4.9-2.2 3.3 6.2 4.6-9.4 8.4-10.2-4.3-4.4 3.7-5h9.7l5.3-4.4 5.1.8-8.2 7.1 2.7 5.2 6.7-11 13.3-4.2-.8-6.9-13.5-.7-22.9-3.4-12.3 2-4.6-3-11.7.9-6.5-3.6L1032 48l-10.8-.1-3.6 5-24.7 6.9-5.5 4.2-2-3.3 5.6-2.4-1.2-3.4-16.6-.5-18.6 13.2 3.7 5.6 9.1.3.6-5.9 6.3-5.1-.4 7.7-3.5 5.4-11.2.4-6.5 5.2-5.9 3.8 3.1 4.5-8 1.4z"/><path class="st20" d="M942.9 72.8l6.6-1.9-.5 4.3 3.5 4.7-2.5 1.8-5-.1 1.5-3.6z"/><path class="st20" d="M939.3 77.9l3-1.4 2 1.5-3 4.3zM1005.3 159l6.5-6.4-1 14.3-4.2 1zM899.7 69.6l3.2-5.3 8.5-4.5 7.9-1.7-1.3-5.8 4.2-.6v-5.9l5.5-6.4-2.6-1.7-6.6 2.6-3.8-6.3-22 3.1-6.5 5.9-8.7.2-5.4 10.1 13.1.9 3.7 9.9zM1079.7 169l-1.2-6.3-5.9-8.9 10.1-3.4-.2-3.7 11.8-5.9 2.8.5-.4 4.3 5.2 1.5-1-7.2 3.6 1.5 4.4 7.5 3.4 2.5 3.9 8-5.4 9.6-5.3.8-6.2-5.7-11.5.3-.4 3zM1068 129.2l7.8-6.9 1.9 7.3-3.5 4.8-2.7.4zM1092.8 129.1l12.2 3.1 3.5 4.8-1.7.7-3-1.6-2.9 1.9-6.8-5.2-4.4-3zM1057.2 122.4l6.7 4.8-.6 2.8 3 2.9.3 4.7 3.9 1.7-3.9 1.3-5.5-4.5-2.4-5.6-3-3.7 2.5-1zM1095.3 77.7l4.2 1.6-4.2 3.1.3 5.9-8.9 5.5-.8-3.8 5.8-3.3.2-5.6zM922.5 63l4.4 2.6 5-3.7-1.6-2-7.1 1.4z"/><path fill-rule="evenodd" clip-rule="evenodd" fill="none" stroke="#9075a0" stroke-width="2" stroke-miterlimit="10" d="M1090.6 153.3l-36.3-70.9-74.9 41.5-151.3-41.3 65.6 72.4z"/><path class="st22" d="M1060.1 82.5l-5.8 6.8-5.7-7.1 5.8-6.9zM1096.2 153.3l-5.6 6.8-5.5-6.8 5.6-6.9zM985.3 123.9l-5.9 7.1-6-7.2 6-7.1zM900 154.9l-6.2 7.4-6.4-7.3 6.3-7.3zM834.7 82.7l-6.5 7.4-6.7-7.6 6.5-7.4z"/><path class="st6" d="M760.6 122.4l-.4 7.8h9.1l-.4-9.4z"/><path class="st11" d="M761.1 139.4l9.5.9-1.9 7.6-7.7.2z"/><path class="st10" d="M761.4 157.3l8.1-1.1.8 8.8-9-.6z"/><path class="st23" d="M761.2 172.4l10.4 2-2.3 8.4-7 .1z"/><path class="st14" d="M778.4 125.2l32.6.1"/><path class="st5" d="M1023.1 180.8l-.7 13 10.3-.2 1-12.9z"/><path class="st14" d="M1040 183.8l31.9 2.4M1040 188.2l22 2.2M1040 192.5l15.7 2"/><path class="st23" d="M1023 204.7l-.7 12.9 10.3-.2 1-12.9z"/><path class="st14" d="M1039.9 207.6l31.8 2.3M1039.9 211.9l21.9 2.2M1039.8 216.2l15.7 2M778.7 144.3l38.1 1M778 161.1l38 2M779.3 179.9l38 2.9"/><path class="st24" d="M1064.1 154.5l-20.4 35.3M1043.7 189.8l23 27.6"/><path class="st25" d="M1075.2 153.8l-11.3 13.7-11-13.7 11.4-13.7z"/><path class="st26" d="M1068.7 153.8l-4.7 5.6-4.4-5.6 4.6-5.6z"/><path class="st25" d="M1054.9 189.7l-11.4 13.9-11.1-13.7 11.4-13.8z"/><path class="st26" d="M1048.3 189.8l-4.7 5.6-4.5-5.5 4.6-5.7z"/><path class="st25" d="M1077.7 217.2l-11.2 13.8-10.9-13.4 11.3-13.8z"/><path class="st26" d="M1071.2 217.3l-4.6 5.7-4.4-5.5 4.6-5.6z"/></g><g id="board"><path class="st17" d="M634.4 240.1l-6.5-5.6-.9-60.4 6 6.1zM537.1 246.3l-1.5-64.1-7.2-3 .6 59.8z"/><path class="st27" d="M632.9 180.1l1.5 59.9 22.5-.9-4.2-59.5-11-16.3z"/><path class="st28" d="M635.7 159.4l-8.8 16.2.3 8.1 26.3 10-.8-14.1z"/><path fill="#818282" d="M535.5 182.1l1.6 64.1 18.6-3.9-.7-61.2-6.2-2.8z"/><path class="st28" d="M542.3 162.6l-14 16.4.1 5.6 26.8 12.8-.2-16.3z"/><path fill="#e2e2e1" d="M542.9 56.3L523 38.7l15.5-14.6 132.8 8.4 2.3 10.7z"/><path class="st1" d="M589.1 34.6l-14.6-7.9 3.6-4.8 43.3-.1 2 8z"/><path class="st0" d="M577.8 43.5l-3.3-16.8 48.9 3.1-5 16.3z"/><path class="st18" d="M523 38.7l150.6 4.5-3.9 135.6-145.9 3.9z"/><path class="st31" d="M591.9 99.4l11.2-6.7 54-.5.2 11.5-55.5 4.1z"/><path fill="#359495" d="M600.7 63.3l17.6-4.5 27.1-.4-.4 13-27 .4z"/><path class="st33" d="M538.4 59l16.8-.1 63.1-.1-.3 13-79.1.2z"/><path fill="#b38b2e" d="M608.9 160.3l17.5-4.5 31.2-.5.5 13.1-31.9.4z"/><path fill="#e4c723" d="M541.6 156l84.8-.2-.2 13-84.1.2z"/><path fill="#a587b9" d="M560.2 92.7h42.9l.4 12-21.4 3.7-21.5-3z"/><path class="st37" d="M598.2 107.7l5.3-3 53.8-1v6.1l-53.6 1.3z"/><path class="st5" d="M560.6 105.4l42.9-.7.2 6.4-42.8 1.1z"/><path fill="#3e8e6f" d="M575.3 133.8l11.1-8.4 57.5-.4-.7 13-56.3 1.1z"/><path fill="#73c6a4" d="M538.5 125.7l47.9-.3.5 13.7-47.9.7z"/></g><g id="India"><path class="st40" d="M35.3 152.5l5.4 11.5.1-18-7.5-9.9z"/><path class="st41" d="M129 319.7l-64.3-9-61.6 15.2 63 6z"/><path class="st42" d="M56.3 309.3l3.5-20.1-10.4-22-11 16.9 1.7 22.3 6.2 7.6z"/><path fill-rule="evenodd" clip-rule="evenodd" fill="#9da1a2" d="M82.2 241.2l8.6 12.4-.7 4.9-10.3 8.7-17 4.3-21.5-1.9-5.2-8.9 6-16.7 21.7-9.8z"/><path class="st44" d="M62.8 271.5l-26.7-10.8 2.3 23.4 21.4 5.1z"/><path class="st45" d="M118.1 219.8l9.3-4.4-2.5-4.1-5.4-5.1-8.6 4.1-5.4 6.8z"/><path class="st46" d="M46.6 179.7l-7.9-23-.1-38.1 12.7 7.8 11 52.7.6 18.3-11.9-2.9z"/><path class="st45" d="M77.6 177.6l-2.6 6.5-12 15.5-4.9-9.6-4.9-12.1z"/><path class="st47" d="M68.3 193.9H54l9.9 20.3z"/><path class="st48" d="M67.4 191l-3.5 15.6-1.3 51.9 28.2-4.9-.6-19.1 3-22.1-8.2-22.2-10-6.1z"/><path class="st49" d="M84 255.1l-4.2-67.7-9.3 4.6 2.3 64.8z"/><path class="st48" d="M62.6 258.5l1.3-51.9-17.3-26.9-19.5 11.6 4.5 26.7-.3 17.6 17.9 16.5z"/><path class="st50" d="M75.7 198l-8.3-7 7.6-6.9 4.8 3.3z"/><path class="st48" d="M28.3 198.1l3.3 19.9-.3 17.6 9.3 8.5-1.4-43.7z"/><path class="st49" d="M41.2 183l4.5-2.7 7.9 10.6 1.6 64.4-6-3.2-4-4zM97.1 213.4L87.8 192l-2.8-1.8 5.2 44.6 11.1-11z"/><path class="st50" d="M45.8 197.1l-2.7-15.2 3.5-2.2 10 10.4zM113.1 209.7l-16 3.7-6.9 21.4 28.5-13.8z"/><path class="st42" d="M82.9 303.9l3.3-21.3L75 267.9l-9.6 21.3 3 19.8 12.5 4.9z"/><path class="st44" d="M86.2 282.6l3.9-24.1-27.3 13 2.6 17.7z"/><path class="st51" d="M100.3 317.8l-17.4-13.9-14.5 5.1-.2 8.5 16.4 1.6z"/><path class="st40" d="M100.2 320.6l.1-2.8-32.1-.3v3.3z"/><path class="st51" d="M58.9 323.9l-2.6-14.6-16.2-2.9-5 17.4 12.1 2.5z"/><path class="st40" d="M59 327.1H35l.1-3.3h23.8z"/><path class="st46" d="M127.2 217.1l6-3.6-5.6-13.5-7.7 8.4z"/><path class="st46" d="M110.9 210.3l5.9 6.6 3.5-9.2-7.4-4.7z"/><path class="st52" d="M133.6 194.2l-13.7 14.2-7-5.4 17.2-13.1zM53.2 177.9l47.4 1.3 4.6-61.7-22.5-12.4-28.4 3.2-3 18.1zM44.8 134.3l.6 15.1-5.8 3.7-2.4-2.1-3.9-14.9z"/><path class="st45" d="M42.1 137.7l.5 6.3-5.9-5.3zM45.4 149.4l-6.7 7.3-1.5-5.7z"/><path class="st40" d="M30.5 124.4l2.8 11.7 11.5-1.8-.2-14.2-11.5-5z"/><path class="st53" d="M45.1 141.8l3.1.4 3.1-15.8-8.5-14.2-9.7 2.9 11.7 19.2z"/><path class="st40" d="M37.6 108.6l-4.5 6.5 18.2 11.3 6.7-3.5-.1-17.4-4.1-3.2z"/><path class="st40" d="M52.3 96l-14.7 12.6 14.8-2.4 5.1-1.9z"/><path class="st53" d="M58 122.9l-1-14.8-.4-5-4.5-7 15.6-1.8 1.7 13.3z"/><path class="st40" d="M71.6 121.3L58 122.9l9.7-28.6 19.5.2-6.4 14.7z"/><path class="st53" d="M84.4 127.8l-12.8-6.5 15.6-26.8 4.1 17.4z"/><path class="st40" d="M95.3 121.3l-10.9 6.5 2.8-33.3 10.2 14.7z"/><path class="st40" d="M104.3 127.8l-9-6.5-8.1-26.8 17.2 11.8z"/><path class="st40" d="M107.7 120.4l-3.3-14.1-17.2-11.8 17.1 33.3 1.6-8.8z"/><path class="st40" d="M104.1 135.6l3.6-15.2-5.2-7.8z"/><path class="st46" d="M72.3 141.7l5 12.9 6.1-2.2 4.8 2.2 3.3-12 9.8-1.8-3.2-2.8-9.7-.1-1.4-.7-1.7.8-2.5 2.2-2.8-1.8-2.8-.4-12.1-1.3-5.5 2.7z"/><path class="st54" d="M85.3 138.5l2.9 16.1H77.3l2.7-16.2z"/><path class="st45" d="M88.2 154.6l-5.7 1.9-5.2-1.9z"/><path class="st46" d="M90.9 158.9l3 4.6-3.6 9.1 6.2-10.2zM69.7 157l-5.9 5.6 2.1 9.8-5.7-11.5z"/><path class="st45" d="M92.6 163l-24.3-.8 4.4 7.8 15.5.2z"/><path class="st55" d="M89.3 164.6l-1.9 4-13.4-.2-2.6-4.7z"/><path class="st40" d="M93.5 139.3c-1.2 0-2.2 1-2.2 2.2 0 1.2 1 2.2 2.2 2.2 1.2 0 2.2-1 2.2-2.2.1-1.2-.9-2.2-2.2-2.2M73 138.7c-1.2 0-2.2 1-2.2 2.2 0 1.2 1 2.2 2.2 2.2 1.2 0 2.2-1 2.2-2.2 0-1.2-1-2.2-2.2-2.2"/><path class="st40" d="M85.2 134.4l.1 3.6 13.3 1.4 2.7 1.4-1.8-5.2zM80.4 134.6l-.4 3.8-16.1-.1-4.3 1.1 4.4-6z"/><path class="st49" d="M33.6 223.7l-5.3 4.6-15 1.3 13.8-38.3 12.1 9.1z"/><path class="st50" d="M31.9 250.9l-18.6-21.3 20.3-5.9 7 20.3-.1 8.3z"/><path class="st52" d="M31.9 250.9l4.2 9.8 13.1-8.6-8.6-8.1z"/><path class="st47" d="M63.9 206.6l-1.3 51.9"/><path class="st13" d="M63.3 258.5l.9-52.9-.3 1-.8-1-1.1 52.9z"/><g><circle class="st50" cx="61.1" cy="210.4" r="1"/><circle class="st50" cx="61" cy="216.8" r="1"/><circle class="st50" cx="60.8" cy="223.2" r="1"/><circle class="st50" cx="60.6" cy="229.5" r="1"/><circle class="st50" cx="60.5" cy="235.9" r="1"/><circle class="st50" cx="60.3" cy="242.2" r="1"/><circle class="st50" cx="60.1" cy="248.6" r="1"/><circle class="st50" cx="60" cy="255" r="1"/></g><path class="st40" d="M82.5 156.5l-10 1.8-4.3 4.3 12.1-.8 12.3 1.2-3.6-3.9z"/></g><g id="Nigeria"><path class="st56" d="M466.7 311.4l54-13 58 11-54 15z"/><path id="_170305072_2_" class="st57" d="M485.1 260.5l34.2 10.5 34.3-10.8-9.4-30.7-19-21.2-29.4 28-2.4 2.4z"/><path class="st27" d="M532.1 298.9l2.2 2.7-3.1 2.5 11.3 9.3 10.9-3.8.1-2.7z"/><path class="st27" d="M532.1 298.9l-2.5 2.5-1 2.7 13.9 9.3 1-3 2.1-8.3z"/><path class="st58" d="M543.5 310.4l10-3.5-13-14.2-4.1-4.7-5 7.3-1.8 6.1 3.4 2.1z"/><path class="st27" d="M497.4 302.9l-6.5 6.6v3.5l17.6.5.2-3.1z"/><path class="st58" d="M502.9 292.5l-6.5 3.3-5.5 13.7 17.8.9-.9-12.7z"/><path class="st59" d="M540.5 292.7l-9.1 2.6-13-40.5 22.1-1z"/><path class="st59" d="M509.6 252.4l10.5.7-12.3 44.6-11.4-1.9 4.6-49.7z"/><path class="st18" d="M551.1 304.2l-3.1-3.3-2.1 1.3-.9-1.4 1.9-1.2-2.8-3-11.5 6.7.4.2 3.8 2.5 4.1-2.6.8 1.2-3.7 2.2 3.7 2.4.5.3z"/><path class="st58" d="M490.9 309.5l17.8.9-.2-2.4-16.8-.5z"/><path class="st18" d="M503.3 305.3l1.2-1.4 3.7-.1-.2-3.2-13.5-.1-1.4 3.4h3.5v1.2l-3.9-.1-1 2.5 16.8.5-.1-2.5z"/><path id="_170304784_2_" class="st59" d="M568.8 173.4l18.4-12.6 1.9 2.1-4.8 12 .7 3.9-11.3 6z"/><path id="_170304640_2_" class="st58" d="M571 178.3l17.7-4.6v4.6l-13.3 6.3z"/><path id="_170304496_2_" class="st57" d="M483.6 180.9l-4.6 32.6 14.1 6.2 5.6-.5 1.3-6.8.7-13.4-4.4-27.9-10.1 3.3z"/><path id="_170304424_2_" class="st60" d="M483.6 180.9l-1.3 9.2 14.6 7 3-3.2-3.6-22.8-10.1 3.1z"/><path id="_170304064_2_" class="st61" d="M539.3 89.2l11.5 18.7-5.1 24.7-13.6-43.3z"/><path id="_170303920_2_" class="st59" d="M505.3 168.3l-26.9-52.2 15.8-11.7 16.8 11.5 18.4 42.9 2.9 10.8 6.2 11.1-13.2 10.2-16.9-4.8-9.7-16z"/><path id="_170303848_2_" class="st58" d="M539.5 95.5l10.9 58.6-39.1 8.4-17.8-57.9z"/><path id="_170303776_2_" class="st2" d="M527.5 151.8l-6.3-2.1 8.5-2.8 9.6-2z"/><path id="_170303704_3_" class="st62" d="M529.4 158.8l5.1 18.9-27.5-14.8z"/><path id="_170303704_2_" class="st62" d="M540.5 253.8v12.3l-17 4.4-2-6.1z"/><path id="_170303704_1_" class="st62" d="M517.2 263.4l-2.2 8.2-15.8-5.8.4-4.9z"/><path id="_170303632_2_" class="st61" d="M489.6 112.3l4.9 35.1-23.5-24.8z"/><path id="_170303560_2_" class="st58" d="M498 131.9l-9.6 2.4 6.1 13.1 7.1-4.4z"/><path id="_170303488_2_" class="st62" d="M496 134.8l-4.4 1.3 1.9 3.6z"/><path id="_170303416_2_" class="st9" d="M498.4 141.4l2.4 6.9-3.6 1.2-1.9-7z"/><path id="_170303272_2_" class="st62" d="M529.2 141.1l5.5-4.8-12.8 4.2z"/><path fill="#755800" d="M480.6 99.6l2.1-15.9 24.7-6.7 14.5 6.1z"/><path id="_170303200_2_" class="st59" d="M505.2 125.6l15.4-1.1 4 13.9-8.4-8.2z"/><path id="_170303128_2_" class="st59" d="M530.5 136.6l4.4-12.2 5.2-8.1-13.2 6.4z"/><path id="_170302840_2_" class="st64" d="M539.3 144.9l-6.9-2.5-3.5 1.5-3.8.3-4.9 5.8z"/><path id="_170302768_2_" class="st65" d="M526.9 153.8l8.6-2 3.8-6.9-9 4.1-9.9.9z"/><path id="_170302624_2_" fill="#bf8f00" d="M551.7 95.3l-.9 12.6-4.5-5.7-45.7 21.1-31.6-2.8 7.1-14.3 57.1-28.3z"/><path id="_169442432_2_" class="st67" d="M469 120.5l6.2-20.2 58-22.4z"/><path class="st60" d="M544 171l11.3 11-3 23.6-14.5-10.3z"/><path id="_169442360_2_" class="st68" d="M546.3 102.2l-45.7 21.1 32.6-45.4z"/><path id="_169442288_2_" class="st57" d="M555.3 182l13.5-8.6 6.6 11.2-23.1 21z"/><path id="_169442216_2_" class="st60" d="M486.2 174.4l12.5-4.3 8.4 10.6 17.2 7.4 4.5 2.7-2.5 25.8-8.1 50.4-33.1-6.5 1.6-24 13.3-24.1z"/><path id="_169442072_2_" class="st69" d="M542.3 212.6l9.3 28-.9 11.4-19.6-30.3-4.8-5.1-2-28.5 10.2-10.4-2.2-8.1L544 171l-.2 3.7 5.8 18.6z"/><path id="_169442000_2_" class="st60" d="M551.2 226.9l2.4 33.3-35.4 6.8 8.1-50.4 16-4z"/><path class="st67" d="M469 120.5l10.2 10.4 21.4-7.6z"/><path class="st69" d="M491.4 225.5l8.6-13.1 26.3 4.2-8.1 50.4-31.5-30.5z"/><path id="_170304352_2_" class="st60" d="M479 213.5l13.8 19 10.6-10.9-3.4-9.2z"/><path fill="none" stroke="#165e60" stroke-width="3" stroke-miterlimit="10" d="M491 235.7l14.8-15.6"/><path class="st69" d="M486.2 174.4l12.5-4.3 8.4 10.6 17.2 7.4.8 8.9-32-1.5z"/><path fill="#50a9aa" d="M525.1 197l-.8-8.9 10.2-10.4-2.2-8.1L544 171l-.2 3.7 5.8 18.6z"/><circle class="st61" cx="516.2" cy="130.2" r="2.3"/><circle class="st61" cx="535.2" cy="125.2" r="2.1"/><path class="st61" d="M526.9 122.7l-.5-3.6 13.7-2.8zM520.6 124.5l-.9-3.8-14.5 4.9z"/><path id="_170303344_2_" fill="#84614e" d="M526.9 122.7l2.3 8.8 5.5 4.8-12.8 4.2 1.4-6.7-2.7-9.3z"/></g><g id="Bangladesh"><path class="st56" d="M582.7 282.4l69.4-22 72.9 18.9-76.9 24.5z"/><path class="st73" d="M672.4 165.8l-4.1-5.2.3-22.3 3.8.8 9.9 20.6-.2 7.4-2.7 1.1z"/><path class="st74" d="M616.2 156.5l.6 18 3.4-1.5 8.2-16.2-1.2-1.5z"/><path class="st75" d="M616.8 174.5l3.1 2.3 7 19.8-.9 4.7-3.1-.4-4.4-7.8-1.2-4.5z"/><path class="st74" d="M663 178v4.2l-.5 23.5 4.1-1.1 6.7-5.6 1.5-2.5 7.3-29.4-8.1-4.1-3.3.2z"/><path class="st76" d="M666.5 166.4l-21.3 12.2-6.2 1.8-3.5-3.6-8.1-14 2.4-6.1 2.6-1.9 8.5-1 15.5.3 12.2 6.2.7 2.5z"/><path class="st74" d="M641.1 172.3l-4.1 4.3-.4 2.5 2.4 1.3z"/><path class="st77" d="M620.2 184.3l9.6 1.6 9.2-5.5 4.3 7.7 15.3 2.4 4.5-8-3.3-1.8-16.3-2.4-4.5 2.1-3.5-3.6-15.9-2.6-2.8.3z"/><path class="st78" d="M663.1 182.5L674 163l-5.4-2.7-2.9 4.5-26.6 15.6-9.8-17.9 3.1-7.7-5.2.5-10.4 19.2 22.3 5.9"/><path class="st79" d="M607.5 92.8l-2.2 45.4 10.7 12.3-.3-26.6 1.8-2.7-.5-31.7-1.9-2.4-4.2.1z"/><path class="st75" d="M637.7 137.1l-1.2 2 7.3 19.1 7.2-6.5 8.9-14.6z"/><path class="st74" d="M640.5 139.1l15.4.2-12.1 18.9 12.7-6.5 9.5-12.4 1.5-5.8-8.5-24.6-4.5-.8-.1 12.6-13.3 12.6z"/><path class="st75" d="M657.4 114.1l4.3 1.9 7.4 13.8-.4 6.1-2.7 3.4z"/><path class="st76" d="M615.9 139.2l42 .9-.3-30-16.1-33.4-3.8-.5-3.7-.7-18.1 8.6-.8 3 .6 36.8z"/><path class="st74" d="M615.3 87.4l22.4-11.2-1.7-3.5-2.8-.3-17.3 11.7z"/><path class="st73" d="M607.5 92.8L636 72.7l1.5-4-4.2-1.4-24.9 7.9z"/><path class="st74" d="M618 102.9l3.3-2.2 7.9 2.9 2.6 4.5v4.8l-3.6 6.8-4.3-11.7z"/><path class="st80" d="M618 102.9l-.2-1.6 3.3-1.7 8.2.8v3.2l-8.1-1.2z"/><path class="st74" d="M635 107.9l-1 5.1 3.4 7.1 4.5-13 8.4-5-4.6-1.9-8 3.5z"/><path class="st61" d="M641.6 105c1.2 0 2.2 1 2.2 2.2 0 1.2-1 2.2-2.2 2.2-1.2 0-2.2-1-2.2-2.2 0-1.3 1-2.3 2.2-2.2z"/><path class="st80" d="M645.5 99.1l3.8 1.1 1 1.9-3.9-.2-8.7 1.8-1.2-3.8z"/><path class="st61" d="M622.9 104.4c1.2 0 2.2 1 2.2 2.2 0 1.2-1 2.2-2.2 2.2-1.2 0-2.2-1-2.2-2.2 0-1.3 1-2.2 2.2-2.2z"/><path class="st75" d="M632.7 122.5l-4.5-2.8 4.3-1.9 4.9 2.3z"/><path class="st81" d="M602.6 195.9l85.2 1.8-38.5 54.3-27.8-8.8z"/><path class="st82" d="M631.8 108.1l3.2-.2 2.4 12.2-9.2-.4z"/><path class="st79" d="M678.8 80.2l11.7 53.3-9-13.7-29.7-53.5.3-4.9z"/><path class="st81" d="M640.4 69.6l-7.1-2.3 48.8 99.8 8.4-33.6-9-13.7z"/><path class="st73" d="M633.3 67.3l57.2 66.2-38.4-72.1z"/><path class="st2" d="M625.2 128.2l4.5-1 4.5-.4 7.3 1.5-5.2 2.9-4.9-.1z"/><path class="st74" d="M630 133.4l-4.8-5.2 7.8 2.4 8.5-2.3-5.2 5z"/><path class="st75" d="M625.2 128.2l4.4-2.8 2.7.8 3.1-.9 6.1 3z"/><path class="st83" d="M682.4 264.4l.4-5.2 15.9 21-9.3 6.7-3.2-2.5z"/><path class="st65" d="M673.2 218.1l16.2 68.8-13.5.1-3.2-2.3-1.2-50.8z"/><path class="st83" d="M656.6 291.9l-.8-8.7 13.7-61 3.7-4.1 2.7 68.9zM618 274.6l-.5 10.6 16.5-1.7 7.5-69.4-9.1 8.3zM605.6 281.5l11.9 3.7-1.2-32.1z"/><path class="st64" d="M666.7 208.2l-5.6-1.3-22-6.4-17.3 3.9-5.5 48.7-1.3 10.6.4 16.3 2.1 5.2 19.5-64.6-5.8 58.5 2.8 4.4 22.6 8.4 16.6-73.8z"/><path fill="#332a23" d="M615.3 95.5l-.2-8.4L636 72.7l1.7 3.5z"/><path class="st80" d="M632.6 80.6l5.1-4.4 7.8 16.3z"/><path class="st73" d="M616 150.5l-.1-11.3 58.4 13.5z"/><path class="st79" d="M616 150.5l66.1 16.6-7.1-14.5z"/><path class="st81" d="M615.9 139.2l20.8.4 1.5 4 18.8 4.5 10.5-10.7 1.1 2-.2 12.1zM627.4 153.2l-11.2 3.3-4.8 19.5 35.5-17.8z"/><path class="st81" d="M646.9 158.2l17 4.2-54.4 22.6 1.9-9z"/><path class="st73" d="M609.5 185l54.4-22.6 18.2 4.7z"/><path class="st81" d="M613.5 188.7l64.9 52.5.4-24.1 9-19.4z"/><path class="st81" d="M608.7 185l73.4-17.9-12.2 36.1z"/><path class="st79" d="M613.6 200.5l-11-4.6 13.6-39.4 19.8 36.9z"/><path class="st73" d="M636 193.4l-33.4 2.5 5.7 14.6 27.3-4z"/><path class="st79" d="M650.3 187.5l2.1-2.9 29.7-17.5 5.7 30.6-24.7 18.3-14.7-14.5z"/><path class="st73" d="M650.9 185.5l31.2-18.4-24.1 36.2z"/><path class="st81" d="M645.2 191.5l5.7-6.3 11.4 2.6 2.8 10.7-11.2-.2z"/><path class="st74" d="M643.6 189l5.7-6.2 11.3 2.6 2.8 10.7-8.4-.4z"/><path class="st81" d="M614.1 198.5l8.9-5.2-2.5 14-6.6 1z"/><path class="st81" d="M635.6 206.5l-.9-10.2-11.7-3-2.5 14z"/><path class="st74" d="M615.4 195.6l8.9-5.2-2.5 14-6.6 1z"/><path class="st76" d="M637 194.3l-1-.9 13.3-10.6 5.7 12.9z"/><path class="st74" d="M636 193.4l19 2.3 8.1 20.3-27.5-9.5z"/><path class="st76" d="M635.6 206.5l.4-13.1-11.7-3-2.5 14z"/><path class="st73" d="M678.8 217.1l-15.7-1.1 24.7-18.3z"/></g><g id="Japan"><path fill-rule="evenodd" clip-rule="evenodd" fill="#369496" d="M878.6 213.2l31.2-.1 1.8 8.4v8.6l-40.2-.1 1.7-8z"/><path class="st86" d="M899.5 275.5l5.1 1.5 4.5-1.5 10.3-62.5-9.6.1z"/><path fill-rule="evenodd" clip-rule="evenodd" fill="#727272" d="M806 280.9l-11.2 35.2h8.7l11.2-35.2z"/><path transform="matrix(1 -.00622 .00622 1 -1.7268 5.4444)" fill-rule="evenodd" clip-rule="evenodd" fill="#1c7678" d="M835.3 275.6h79.1v9.7h-79.1z"/><path transform="matrix(1 -.00622 .00622 1 -1.7295 5.155)" class="st86" d="M804.6 275.9h47.3v9.7h-47.3z"/><path fill-rule="evenodd" clip-rule="evenodd" fill="#7a7a7a" d="M832.9 253.2l-32.3 7.8 14.2.6 21.8 1.2z"/><path class="st90" d="M800.6 261l-5.9 39 7.3 6.2 15.6 3.4.7-44.6-3.5-3.4-7.2-2.3z"/><path class="st53" d="M794.7 300l-16.2 12.2 17.1 1.9 16.9-1.8v-4.8z"/><path class="st40" d="M778.5 312.2v3.9l34.1-.1-.1-3.7z"/><path class="st53" d="M819 236.1l-3.2 9 4.9 9.5 6.3-7.6 3.3-20.2z"/><path class="st91" d="M815.8 245.1l-13.1 3.3 4.9 6.6 7.2 6.6 9.1-.4z"/><path class="st92" d="M819.4 207.6l-.4 28.5 11.3-9.3z"/><path class="st93" d="M878.7 182.6L894 203l.3 32.3-32 10.9-35.7 1.4 10.4-58.1z"/><path class="st94" d="M802.7 248.4l-2.6 15.9 14.7-2.7z"/><path class="st47" d="M837 189.5l-4.5 23.7 17-10.8z"/><path class="st92" d="M885.3 126.1l2.5 18.6-6.4 1-6.6-2.3-14.5-10.8z"/><path class="st40" d="M887.8 144.7l.6 9.8-19.2-1.1 5.6-10z"/><path class="st91" d="M819.6 126.7l-3.8 53.1 38.7 6 18-11 14.2-17.5-16.4-2.6 1.7-11.2-6.5-2.1-5.2-8.8z"/><path class="st94" d="M860.3 132.6l-5.8 53.2-5 16.6 29.2-19.8 9.7-28.1-16.4-2.6 2.8-8.5-14.5-10.8z"/><path class="st95" d="M841.5 164.2l-7.5 2.4-5.8-4.1zM829.8 182l31.6 4.6-11.9 15.8zM870.1 166.3l10 1.1 1.5-14.1 3.1 12-11.4 7.4z"/><path class="st95" d="M872.6 163l.9-6.8h6zM825.5 169.6l9.1 2.9 9.5-1.3v3.1l-9.8 1-9.5-3.1z"/><path class="st47" d="M878.7 182.6l-17.2 31.5-12-11.7z"/><path class="st42" d="M894.3 235.3l-62.6 13.5 3.2 12 30.7-4.4 31.9-8.9z"/><path class="st90" d="M897.5 247.5l1.7 28-57.2.3.2 36-18.5-6.9-7.6-5-1.3-38.3 34.3-6.4z"/><path class="st96" d="M849.5 202.4l-11.8 19.7-1.2 25.6 5.2-24.2z"/><path class="st96" d="M841.9 221.7l14.1.3.1 15.4-14.1 1z"/><path class="st92" d="M842.2 311.8l-20.3.8-18.8-.5 13-12.2z"/><path transform="matrix(1 -.00622 .00622 1 -1.9358 5.1204)" class="st40" d="M803.1 311.9h39.2v4h-39.2z"/><path fill-rule="evenodd" clip-rule="evenodd" fill="#858686" d="M842 275.8l-17.1-11.7-5.1-3.5-5 1 1.3 38.3 26.1 11.9z"/><path class="st40" d="M894.3 235.3l8 36.9-63.4-13.1 26-18.9z"/><path class="st53" d="M885.1 191.5l10.4 10.2-1.2 33.6-39.9 9.2 17.8-47.2z"/><path class="st92" d="M871.7 204.9l23.8-3.2-6.7 22.6-12.7 20.4-18.9-4.8-7.8-7.3z"/><path class="st53" d="M849.4 232.6l-17.8 13.8 1.3 6.8 6 5.9 37.2-14.4z"/><path class="st91" d="M831.6 246.4l-14.3 1.4 2 7.1 5.6 9.2 14-5z"/><path class="st94" d="M817.3 247.8l-2.5 13.8 10.1 2.5z"/><path class="st53" d="M819.6 200.8l12.9-12.3.4 15.6-13.5 3.5z"/><path class="st40" d="M890.8 194.8l-11.1-15.6-4.3 5.6-7.8 14.6-12.2 25.5 26.2-21.1-9.4-6.5zM819.1 192l12.2-8.4 5.7 5.9-6.7 37.3-13.6-20.1 13.6-3.8z"/><path class="st98" d="M849.5 202.4l-6.6 4.4 1.7 5.3h5.4l4-5.3z"/><path fill-rule="evenodd" clip-rule="evenodd" fill="#96637c" d="M844.6 212.1l-12 33.6 15.2-11.8 2.2-21.8z"/><path class="st92" d="M820.2 127.1l-5 .8 3.1 18.5z"/><path class="st40" d="M834 111.1l18.8 1.7 11.5-1 21 14.3-25 6.5-13.3 1.5-5.6-3.4-19.6.4 6.6-3.4-17.7.7z"/><path class="st94" d="M821.7 145.1l7.2 3.6-.7 13.8 6.3-9.1-1.5-7-4.7-1.5zM840.4 147.5l-3.6 6.3 4.7 10.4 3.7-12.7 7-3.2-6.7-1z"/><circle class="st53" cx="826.9" cy="149.6" r="2"/><circle class="st53" cx="844.4" cy="152.5" r="1.9"/><path class="st53" d="M839.4 145.2l1 2.3 5.1-.2 6.7 1 1.5-1.6-8.5-2zM833 146.4l1.3-1.9-6.1-2.3-7.3 1.4.8 1.5 6.6-.2z"/><path fill-rule="evenodd" clip-rule="evenodd" fill="#f4d5b5" d="M828.2 162.5l5.5-7.6-.7-8.5 7.4 1.1-2.5 7.5 3.6 9.2z"/><path class="st94" d="M826.3 163.3l-4.4 4.1-.2 3.5zM843.6 164.6l4 4.9-.1 4.2z"/><path class="st101" d="M848.5 285.6l8.1 16.4 2.8-2-5.4-14.7z"/><path class="st102" d="M897.5 251l16.1 58.5M876.2 272.6l58.7 15.3M884.2 301.8l42.7-43.1"/><path class="st103" d="M862.5 291.3l-10.6 18.6M847.9 295.3l18.7 10.6"/><g><path class="st105" d="M913 307.4c-15 4.1-30.5-4.7-34.7-19.7-4.1-15 4.7-30.5 19.7-34.7 15-4.1 30.5 4.7 34.7 19.7 4.2 15.1-4.7 30.6-19.7 34.7z"/><circle class="st106" cx="905.6" cy="280.2" r="32.9"/></g><g><path class="st105" d="M857.3 311.4c-5.9 0-10.8-4.8-10.8-10.7 0-5.9 4.8-10.8 10.7-10.8 5.9 0 10.8 4.8 10.8 10.7 0 5.9-4.8 10.7-10.7 10.8z"/><circle class="st106" cx="857.2" cy="300.6" r="12.6"/></g></g><g id="Pakistan"><path class="st107" d="M773.8 222.6l8.7 13.1-22.1 14.4-10.9-21.2z"/><path class="st108" d="M757.5 196.9l14.9-11 10.1 49.8-22.3-11z"/><path class="st46" d="M703.3 241.5l3 8 13.2 9.9v-9.9l-8.5-13.6z"/><path class="st108" d="M696.1 230.9l4.3 13.6 5.9 5 4.7-13.6-5.1-8.1z"/><path opacity=".1" fill-rule="evenodd" clip-rule="evenodd" fill="#2a2b2a" d="M898.8 265.8l-75.9 4.9-5.9 6.3-51.6 38.5.8.3-24.7-1.5-46.9 10 46.9 12.7 51.3-10.8 24.4 9.5 105.9-4.7 37.8-34.3z"/><path class="st53" d="M729.3 323.5l-3.8 2.8.1 2.5 22.4-.1v-2.6z"/><path class="st53" d="M762.5 322l4 1.2v2.7l-18.9.3-2.3-.9s.5-3.7.7-3.7c.1-.1 16.5.4 16.5.4z"/><path class="st46" d="M750.2 308.1l3.1 2.6 13.1 12.4-25 .3-5.3-10z"/><path class="st53" d="M748.4 322.3l-7.7-2 .9-1.3 3.9.7-3.5-1.7-.1-1.6 14.7-2.5 5.3 5z"/><path class="st52" d="M733.5 306.9l-5.9 5.6-2.1 13.8 22.5-.2-6.4-10.2z"/><path class="st108" d="M724.9 281.4l-1.1 12.8 3.8 18.3 14 3.4 2.3-18.2z"/><path class="st107" d="M750.6 288.3l4.6 6-1.9 16.4-11.7 5.2-1.4-18.2z"/><path fill-rule="evenodd" clip-rule="evenodd" fill="#9076a0" d="M736.8 295.2l3.4 2.5 8.5-1.8 3.2-10.6 3.2 9.7 3.8-13.1-15.4-21-10.4 8.9z"/><path d="M754 266.6l-15.2 8.5-12.3-8.5 8.2-22.4s12.8 6.2 13.3 5.9c.6-.2 6 16.5 6 16.5z" fill-rule="evenodd" clip-rule="evenodd" fill="#594365"/><path class="st108" d="M767.3 238.1l6.3 51.9-33.4 7.7 1.9-58.1z"/><path class="st112" d="M711 235.9l31.1 3.7-1.9 58.1-33.4-9.6zM712.7 196.2l-6.5-9.8-3.9 1.4-15.2 46.6 13.3 10.1 16.6-28.1z"/><path class="st108" d="M711 235.9l-4.8-49.5 10.3-5.4 33.2 10.6-1.2 29.2-6.4 18.8z"/><path class="st112" d="M772.4 185.9l-5.1 52.2-25.2 1.5.2-18.8.3-31.1 7.5-2.8c2.3.3 3.7.6 3.7.6l10.1-2.8 8.5 1.2z"/><path class="st108" d="M739.6 187.5l3 2.2 14.1 8.4 6-10.7-4.6-8.6-11.6 1.1z"/><path class="st112" d="M741.5 180l2 5.6-.9 4.1-14.3 7.5-11.8-16.2 2.6-4.6z"/><path class="st45" d="M723.8 169v7.8l18.7 8.9 13.9-6.5-7.6-10.8-23.5-3.6z"/><path class="st46" d="M715.3 158.4l3.8 18 11.8 4.6-.9-5.4 1.7-2.3-2.2-22.7-8.5-8.9z"/><path class="st45" d="M722.9 149.6l-7.6 8.8-1.4-7.6 1.6-5.5z"/><path class="st113" d="M734.3 120l-5.9-5.2-19.7 6.9 2.4 15.5 11.6 11.8 3.8 36.1 10.4 3.5 3.6-18.7z"/><path class="st46" d="M729.6 112.1l-1.9 9.9 1 25.9 7.2 4.1 3-.6 4.9-37.2-6.1-10.3z"/><path fill-rule="evenodd" clip-rule="evenodd" fill="#c4c4c4" d="M742.8 98l-20.5 1-13.6 22.7 19 .3 7.3-10.4 4-7.8z"/><path fill-rule="evenodd" clip-rule="evenodd" fill="#eaebeb" d="M771.7 110.7l.6-5.2-4.4-5-14.2-5.6-31.4 4.1 16.7 4.8 13.7 6.5z"/><path class="st52" d="M772.3 105.5l11.4 10.8-7.3 44-13.9 19.5-9.2-3.2-10.4-2-2.3-7.2-4.7-15.4-.9-40.4 4-7.8 14 5.3 17.5.4z"/><path class="st46" d="M775.3 134.9l3.4 3.4-8.8 3.1-3.6 10.5-3.3-.7-5 2.2-5.4-14-10.4-3.8s6.3-2.3 6.6-2.8c.2-.5 10.9 1.1 10.9 1.1l1.6 4.7 1.4 1.8 1.6-1.7 1.2-4.1 9.8.3z"/><path class="st116" d="M759.4 131.4l-10.1-.1-7.2 2.4.1 1.8 6.9-1.5 10.5-.2zM766.1 131.9l9 2 4 3.6-.4.8-3.3-2.4-10-1.4z"/><path class="st52" d="M720.6 135.9l-9.5 1.3 2.8 13.6 9-1.2z"/><path class="st45" d="M718.6 146.1l-.1-6.9-4.6.5z"/><path class="st117" d="M752.1 139.9c.1 1.2 1.1 2 2.3 2 1.2-.1 2-1.1 2-2.3-.1-1.2-1.1-2-2.3-2-1.2.1-2.1 1.1-2 2.3zM769.7 140.7c.1 1.2 1.1 2 2.3 2 1.2-.1 2-1.1 2-2.3-.1-1.2-1.1-2-2.3-2s-2.1 1.2-2 2.3z"/><path class="st116" d="M736.9 188.6l33.4.6 6.1-28.9-4.5 1-10-5.6-17.8 2.1-8.2-5.9 1 36.7zm11.2-18.5l1.9-9.4 10.1-.2 6.1 2.7-3.6 8.7-14.5-1.8z"/><path class="st45" d="M763.3 150.2l3.1 3.3-4.5 2.3-3.9-2.5z"/><path class="st54" d="M764.2 138.7l2.2 14.8-8.4-.2 3.3-14.7z"/><path class="st116" d="M762.4 166l-9-1.4 1 6.7 4.4 1z"/><path class="st46" d="M756.1 143.5l-7.1.5-5.9-2.6 5.4 5.8zM767.1 143.6l3.2 2.6 5.1-1.1-5.6 3.5-3.1-2.8zM766.1 131.9l-2.4-1.3-.2 4.3 1.9-.4zM759.6 133.8l-.2-2.4 2.5-.6-.3 3.8z"/><path fill="#997462" d="M738.8 147.9l7.1 5.9-1.9 13.8z"/><path class="st46" d="M766.1 163.2l-6.1-2.7-10.1.2-.2 1.1 8.6 6.8 7.1-3.7z"/><path fill="#9fa0a0" d="M744.1 157.9l1.3-.2-1.4 9.9-3.2-12.1z"/><path class="st46" d="M771.5 166.3l.7-8.2 3.8-3.7z"/><path class="st113" d="M771.5 166.3l.4-5 1.6-.3z"/><path class="st120" d="M712.5 115.8l15.2 6.2-5.4-23z"/><path class="st120" d="M722.3 99l31.4-4.1-18.7 16.7z"/><path class="st121" d="M727.7 122l-5.4-23 12.7 12.6z"/><path class="st120" d="M727.7 122l7.6 2.3-.3-12.7z"/><path class="st121" d="M735.3 124.3l-.3-12.7 48.7 4.7z"/><path class="st120" d="M735 111.6l32.9-11.1 15.8 15.8z"/><path class="st121" d="M735 111.6l18.7-16.7 14.2 5.6z"/><path class="st120" d="M735.3 124.3l48.4-8-2.1 11.9z"/><circle class="st112" cx="740.2" cy="195.9" r="1.3"/><circle class="st112" cx="739.7" cy="203.8" r="1.1"/><circle class="st112" cx="739.5" cy="210.9" r="1.1"/><path fill="none" stroke="#73cfe5" stroke-width="4" stroke-miterlimit="10" d="M742.2 216.4l-6.6.2.6-21.2"/><path class="st92" d="M740 325.3l5.4-3.4-.8-1.2-4 .7 3.5-1.5-1.9-3-15-1.1-.8 5.4z"/><path class="st93" d="M752 162l6.1 4.3 6.2-2.1-4.4-1.2z"/></g><g id="Russia"><path class="st123" d="M1021.7 223.4l-5.7-13.1-10.7 5.8 14 21.5zM982.4 281.4l-4.2 23.9-2.4 7.4-6.6-4.6-6.2-27.6zM1008.9 276.9l-15.8 22.2-3.5 6.2-5.4-6.8 5.7-19.2z"/><path class="st124" d="M994.4 267.9l18.7 4-4.2 5-19 2.4zM961.7 272.3l1.3 8.2 19.4.9 2.8-13.6z"/><path class="st125" d="M992.9 167.8l-7 24.9 23.8 5.2 5.3-41.2-2.7-19.5z"/><path class="st126" d="M1009.7 197.9l5.8-4.2 8.6-42.6 1.1-18.5-12.3 5.1-5.6 10.1 4 8.7z"/><path class="st123" d="M957.4 265.5l-7.7-11.1-2 4 1.4 4.6 6.3 4.2zM948.3 276.8l-5.3.4-5.7-10.1 7.9-4.1 3.9 3z"/><path class="st127" d="M940.5 255.2l-3.2 11.9 11.8-1.1.6-11.6-5.6-1.2z"/><path class="st13" d="M1005.4 202.5l2.2-15 14 20.4-18 11.1zM965.1 217.1l-7.2-1.5-18.3-7.2 11.1-26.7 2 12.8z"/><path class="st13" d="M957.9 215.6l49.9-1.5 5.3 57.8-57.5 3.9z"/><path fill="#f4d75d" d="M1008.4 199.5l-8.9 3.4-4.9 3.7-36.2-3.3-2.1-3.2-.7-9.6 10.1-9.3 5.3-.4 15.8-2.4 5.3.3 15.5 8.8z"/><path class="st10" d="M1008.4 199.5l-.6 14.6-49.9 1.5-1.6-15.5z"/><path class="st127" d="M1036.9 226.9l-2.3-4.3-12.9.8-2.4 14.2 14.7-4.4z"/><defs><path id="SVGID_1_" d="M955.6 275.8l2.3-60.2-1.6-15.5-.7-9.6 10.1-9.3 5.3-.4 15.8-2.4 5.3.3 15.5 8.8.8 12-.6 14.6 5.3 57.8z"/></defs><clipPath id="SVGID_2_"><use xlink:href="#SVGID_1_" overflow="visible"/></clipPath><g clip-path="url(#SVGID_2_)"><path transform="matrix(.9998 -.02111 .02111 .9998 -4.5694 21.3179)" class="st10" d="M1003.7 219.2h7.2V235h-7.2z"/><path transform="matrix(.9998 -.02112 .02112 .9998 -4.5785 21.0714)" class="st10" d="M991.8 219.4h7.2v15.8h-7.2z"/><path transform="matrix(.9998 -.02111 .02111 .9998 -4.5853 20.8138)" class="st10" d="M979.8 219.7h7.2v15.8h-7.2z"/><path transform="matrix(.9998 -.02112 .02112 .9998 -4.5945 20.5672)" class="st10" d="M967.9 219.9h7.2v15.8h-7.2z"/><path transform="matrix(.9998 -.02111 .02111 .9998 -4.6013 20.3098)" class="st10" d="M956 220.2h7.2V236H956z"/><path transform="matrix(.9998 -.02111 .02111 .9998 -5.0523 21.3336)" class="st10" d="M1004.2 242.1h7.2v15.8h-7.2z"/><path transform="matrix(.9998 -.02112 .02112 .9998 -5.0615 21.0872)" class="st10" d="M992.3 242.3h7.2v15.8h-7.2z"/><path transform="matrix(.9998 -.02111 .02111 .9998 -5.0683 20.8296)" class="st10" d="M980.3 242.6h7.2v15.8h-7.2z"/><path transform="matrix(.9998 -.02112 .02112 .9998 -5.0775 20.583)" class="st10" d="M968.4 242.8h7.2v15.8h-7.2z"/><path transform="matrix(.9998 -.02111 .02111 .9998 -5.0842 20.3255)" class="st10" d="M956.5 243.1h7.2v15.8h-7.2z"/><path class="st10" d="M1012 274.5l-7.2.1-.2-9.6 7.1-.1zM1000.1 274.7l-7.2.2-.3-9.6 7.2-.2zM988.1 275l-7.1.1-.3-9.6 7.2-.1zM976.2 275.2l-7.2.2-.3-9.6 7.2-.2zM964.2 275.5l-7.1.1-.3-9.6 7.2-.1z"/></g><path class="st123" d="M1055.1 231.3l-1.9 5.3-11.6.8.3-6.3 3.6-4.9z"/><path class="st127" d="M1034 233.2l7.6 4.2 3.9-11.2-2.7-3.3-4.9 4.3zM954.3 226.4l-4 24.1-4.9 2.3-5.3-2.2.4-23z"/><path class="st8" d="M951.3 250.3l-7.9.1-1.6 2.9 1.7 2.4 7-.4z"/><path fill="#bfdb8e" d="M943.4 250.4l.1 5.3-4.6.5-.5-5.8z"/><path class="st124" d="M996.5 172.7l-3.6-1.6-18.1 2.5 7.7 8.8 5.6 3.5z"/><path class="st123" d="M988 173.8l-9.2 1.4 9.3 10.7-17.1-5.1-4-1.2-8.4-18.4.9-39.5 6.9 3.3 4.3 28.2 20.9 17.9zM1048.7 220.5l.4 2-15.1 10.7.6-10.6z"/><path class="st131" d="M1040 324l-53.6 13.9-50.5-12.8 51.2-6.8 52.9 5.7"/><path class="st68" d="M994.9 311.3l2.5 2.5 9.4 8.4-21.7.8-5.2-5.6z"/><path class="st132" d="M972 307.9l-2.8.2-3.2 9.4 6.6 10.1 1.8-8.5zM979.9 317.4l7.4.9 7.1 9.5-21.8-.2z"/><path class="st68" d="M989 299.9l-4.8-1.4-6 6.8 4.6 10.5 4.5 2.5 2.9-7.4z"/><path class="st133" d="M978.2 305.3l9.1 13-14.7 9.3-3.4-19.5z"/><path class="st133" d="M993.1 299.1l4.3 14.7-10.1 4.5-3.1-19.8z"/><path class="st134" d="M971.6 95.4l30.4 2.9 11.3 7.8-9.2 5.7-59.5 9.3.7-7.4z"/><path class="st126" d="M970.3 101.3l-25.7 19.8-2.2 20 1.6 2.7 6.4-6.9 20.7-29z"/><path class="st125" d="M983.3 119.7l-8.7-10.9 38.7-2.7 11.9 26.5-11.8 20.2z"/><path class="st133" d="M1014.3 169.9l-42.4 6.3-9.1-51.2 11.1-9 39.6 2.6z"/><path class="st123" d="M1003.2 138.2l6.5-5-4.8-.6-8.1 2-3.3 4.1.6 7.8 3.2 4.4zM990.9 139l1.6 7.5-2.5 5.3-8.4-11.9-9.7-2.7 4.4-1.5 10.2-.3z"/><path class="st61" d="M981.8 137.4c-1.2.2-2.1 1.3-1.9 2.5.2 1.2 1.3 2.1 2.5 1.9 1.2-.2 2.1-1.3 1.9-2.5-.1-1.2-1.3-2.1-2.5-1.9z"/><path class="st124" d="M994 153.9l3.3-3-3.6-.2-3.7 1.1z"/><path class="st133" d="M989.7 137.1l4.4-.7 3.2 14.5-7.3.9z"/><path class="st61" d="M1003 135.1c-1.2.2-2.1 1.3-1.9 2.5.2 1.2 1.3 2.1 2.5 1.9 1.2-.2 2.1-1.3 1.9-2.5-.1-1.2-1.3-2.1-2.5-1.9z"/><path class="st125" d="M1009.7 133.2h-5.5l-7.4 1.4.9-1.9 7.4-.9zM971.3 137.2l5-1.5 10.1-.2-1.1-1.8-8.5.4z"/><path class="st126" d="M1013.3 106.1l11.9 26.5-48.3-16.8-5.8-7.9zM971.6 95.4l30.4 2.9-31.7 3z"/><path class="st134" d="M976.9 115.8l48.3 16.8-3.8-8.4-45.8-10.2z"/><path class="st123" d="M976.9 115.8l36.7 16.1v-3.4l-36.7-12.7"/><path class="st125" d="M952.6 205.7l1.6-57.1 5.4-8.1 10.1 39.5-3 19.8z"/><path class="st126" d="M940 154.8l12.6 50.9 14.1-5.9-7.3-29.1-1.8-22.4-3.9-.6-8.9.5z"/><path class="st125" d="M963 153.4l2.3 9.4-7-6-.6-6.9z"/><path class="st133" d="M963 153.4l-3.6 1.9-5.7-7.6 1.2-7.3 4.7.1z"/><path class="st134" d="M944 127.6l27.1-19.7 5.8 7.9-17.3 15.8-5.9 16.1-1.1 58-12.6-50.9z"/><path class="st124" d="M960.4 150.7l-.1-4.1-1.1.4-1.5.5z"/><path class="st126" d="M976.9 115.8l-17.3 24.7h-3.3l7.9-22.8 11.4-3.7z"/><path transform="rotate(151.909 960.72984858 153.8073455)" class="st33" d="M959.4 152.5h2.7v2.7h-2.7z"/><path class="st135" d="M1001.8 159.1l-5.9-.9s-9.9 3.8-9.8 3.5c.1-.3 6.1 3.7 6.1 3.7l6.1-1.6 3.5-4.7z"/><path fill="#a282b7" d="M1000.7 158.6l.9.1-3.4 3.7-6 1.3-5.9-2.3 1.1-.6-4 .1 7.5 6.5 8.7-1.4 4-8.7z"/><path fill="#7e608b" d="M1003.6 157.3l-7.7-.4-12.5 4 2.9.5 15.3-2.7z"/><path class="st68" d="M966 317.5l-3.1 10.5 9.7-.4z"/><path class="st123" d="M954.3 226.4l3.6-10.8-12.2-5.2-5.2 17.2z"/></g><g id="China_1_"><path class="st138" d="M332.5 186.2l-1.2-5.7-6.6-.6 1.9 2.9zM304.4 189.6l-9.6 10.6-6.7 2.7-3.9-17.8-.5-2.4 5.3.2z"/><path class="st138" d="M319.5 204.6l12.3-13.9-10.3-11.8-5-2.8-5.8 4.7-17.7-5.2.4 3.6z"/><path class="st131" d="M359.4 318.1l-47.2 9.8-47.2-5.3 47-16.7z"/><path class="st139" d="M293 314.3l7.8-2 5.5 9.4-19.7.6z"/><path class="st61" d="M288.7 303l1.1 8.3-3.2 11-2.3-11.7z"/><path class="st140" d="M288.7 303l4.9-4.3 4.8 1.8 2.4 11.8-14.2 10z"/><path class="st139" d="M346.6 319.1l-15.1.8.8-6.5 5-3.8z"/><path class="st61" d="M319.7 307.1l4.1 1.1 2.1 5.3-2.3 6.3z"/><path class="st140" d="M332.7 301.7l-3.9-2.6-6 .2-3.1 7.8 11.8 12.8 5.8-10.3z"/><path class="st141" d="M336.3 248.6l-1.4 26.5-2.7 1.6-14.1-1.1-3.7-1.8-4.3-16 1.3-4.1 3-7 14.3-10.6zM293.7 235.9l18.2 7.7-1.8 14.2L306 273l-19.8-1.5-1.1-27.2 4.5-9.5z"/><path class="st142" d="M306 273l-19.8-1.5 2.5 31.5 9.7-2.5zM332.7 301.7l-9.9-2.4-8.4-25.5 20.5 1.3zM292.9 232.3l11.1 1.1.6-1.5 23.7-.7 3.8-1 4.2 18.4-26.2 9.2-25-13.5z"/><path class="st138" d="M338.2 227l-3.1-7.8-7 6.7.5 7.3 5.4.4z"/><path class="st143" d="M340.5 224.8l-6.5 8.8 1.1-14.4z"/><path class="st144" d="M323.9 169.1l-7.9-.8-18.8-1 9.3 13 7.7 5.7z"/><path class="st143" d="M299.2 153l14 14.6-13.7-4.2-.7 5.7 15.4 16.9-20.2-9.4-18.6-33.5 19.6-24 2.7 4.4z"/><path class="st145" d="M307.4 108.6l-21.8-28.7"/><path class="st61" d="M293.2 83.7l.2 6.4-1.5 5.6-12.8 3.4-7 .4-3.3-2.2-.3-.2 17.1-17.2z"/><path class="st140" d="M315.9 92.6l-3.9 2.3-10.5-1.1-8.1-3.7-7.8-10.2 24.2 2.3z"/><path class="st140" d="M306.7 113.7l.7-5.1 1.1-5.2-8.4-11.2-6.7-2.1-21.3 9.4 22.9 19.6 5.3.6z"/><path class="st139" d="M328 105.4l-1.5 5-2.5 2.4-12.4-.8-4.2-3.4-14-18.5 22.5 2.5 6.3 2.6z"/><path class="st138" d="M340.2 169.5l-43.9.5-1.3-50.9 12.4-10.5 31.7 2.6 4.2 3 1.7 7.2z"/><path class="st101" d="M346.9 108.1l-1.9 13.3-15.5-27.1 6.2.8z"/><path class="st143" d="M324.9 140.7l7.6-4.7 7.2-4-4.1-3.8-9.6 1.8-2.3 7.5zM316.5 141.1l1.1-3.4-3-7.8-10.2-1.3-2.1 3.2 8.4 3.5z"/><path class="st61" d="M295 119.1l-1.7-5.7-14.2-14.3-7 .4-8.6 60.7 12.8.7 5.2-8.7 3.6-13.7z"/><circle class="st61" cx="334.5" cy="134.1" r="2.2"/><circle class="st61" cx="310.7" cy="134.6" r="2.4"/><path class="st144" d="M326.9 146.4l-12 .4 6.3 4.3z"/><path class="st139" d="M326 130.5l9.6-1.1 4.1 2.6.5-3.5-4.5-2.4-11 1.3z"/><path class="st140" d="M314.5 130.4l-10-.7-2.2 2.1-1.7-3.8 3.4-1.4 12.8-.1z"/><path fill="#fae3cf" d="M326.9 146.4l-3.2-8.9-6.1.2-2.7 9.1z"/><path class="st143" d="M356.1 213.9l-5.7-18.2-10.5 13.9 2.4 1.7z"/><path class="st61" d="M319.7 126l9.2 1.4-1.4-11.1-11.6-23.7 1.1 26z"/><path class="st139" d="M317.8 97.1l19.7 30.3 12.7 8-2.8-28.2-11.7-12.1-19.8-2.5z"/><path class="st61" d="M315.9 92.6l-27.1 12-1 40.1 7.7-14.3 15.9-3.8 5.6-8 1.8-19.3z"/><path class="st140" d="M315.9 92.6l13 34.8h8.6z"/><path class="st139" d="M315.9 92.6l3.8 33.4-8.3.6z"/><path class="st61" d="M350.2 135.4l-7.2 6.2.9-10.2z"/><path class="st140" d="M280.4 138l3 19.5-8.2-14.4-1-12.8z"/><path class="st78" d="M331.3 180.5l9.9 1.9 11.4 11.2-12.7 16z"/><path class="st61" d="M268.5 97.1l-8.5 36.2 3.5 26.9 6.8-61.9z"/><path class="st139" d="M268.5 97.1l3.6 2.4 4.2 61.4-12.8-.7z"/><path class="st138" d="M288.1 130.8l-.3 13.9-9.6-1.2.3-14.3z"/><path class="st144" d="M284.6 134.1l.2 5.6-3.8-6.5z"/><path class="st79" d="M289.6 234.8l-3.7 6.2-.8 3.3 51.2 4.3-2.3-15-5.4-.4z"/><path class="st65" d="M322.4 180l-7.4 17.9-21.6-18.7-9.7 3.5.6 33 1.6 25.3 49-1.3-.9-6.1-5.4-.4-.5-7.3 5.9-5.5 5.9-17.8z"/><path class="st147" d="M276 256.3l31-3.6-9.9-26.4-34.6 6.1z"/><path fill="#dddddb" d="M278 253.8l17.7-10-.9-14.3-29.4 5.1-8.7 5.8z"/><path fill="#ebecea" d="M283.3 253.4l19.3 4.7 4.4-5.4-12.2-23.2-5.4 4.4z"/><path class="st147" d="M267.5 261.7l35.1-3.6-13.2-24.2-32.7 6.5z"/><path class="st150" d="M267 215.2l3.7-2.7 9.3-.5 3.4 2.5-3 25.6-4.7 2.5-4.7-1.5z"/><path class="st151" d="M282.7 264.1l2.5-4.4-3.3-1.6-7.7 1.2-3.4 2.3zM280.3 247.2l8.8 5.2.8 1.4-1.2.5-6-.9-3.6-3.7z"/><path class="st150" d="M272.2 248.2l4.2-2 3.9 1 4.9 12.5-14.4 1.9z"/><path fill-rule="evenodd" clip-rule="evenodd" fill="#73c6a4" d="M282.6 239.8l.9 6.9-14.8 2-.5-7.3z"/><path class="st5" d="M339.9 202.6l-51.8.3-4.4-20.2 9.7-3.5 21.6 18.7 6.5-19 9.8 1.6z"/><path class="st77" d="M325.1 217.6l-3.6-38.7 9.8 1.6 8.6 22.1-4.7 13.9z"/><path class="st138" d="M340.5 224.8l15.6-10.9-13.8-2.6-7.2 7.9z"/><path class="st143" d="M288.2 194.5l-5.3 8.9.5 11.1-16.4.7 3.7-17.2 13-15.3 3.4 5.2z"/><path opacity=".22" d="M287.8 144.7l-4.4 12.8-5.2-14z"/><path class="st78" d="M283.7 182.7l-9.2 4.7-8.1 13.1 19.8 9.2z"/><path class="st77" d="M283.7 182.7l9.7-3.5 5.8 23.6 1.2 17.7-15.9.9z"/><path class="st98" d="M329.8 156l-.5 1.3-17.6 1.1-1-1.3 10.7-3.5z"/><path fill-rule="evenodd" clip-rule="evenodd" fill="#b3889d" d="M329.3 157.3l-5.2 6.8h-6.7l-5.7-5.7z"/><path class="st55" d="M326.7 157.5l-3.2 3.2h-6.8l-2.7-2.4z"/></g><g id="USA"><path class="st155" d="M171.2 170.5l3 9.1 6.6 4.2 2.8-5.7-5.4-6.7z"/><path fill-rule="evenodd" clip-rule="evenodd" fill="#bfb375" d="M188.7 182.5l-3.1 3.4-4.8-2.1-2.6-12.4 5.2.6 8.9 5.5z"/><path class="st157" d="M159.5 161.1l6.2-21.1 4.9 14.9.6 15.6z"/><path class="st158" d="M176.4 104.3L166 118.4l-2.2 51.5 19.6 2.1 14.1 4.2 8-3.4 7.1-10.9-2.1-37.5-7.3-20.1z"/><path fill-rule="evenodd" clip-rule="evenodd" fill="#cfa39e" d="M174.9 106.2l-8.9 12.2-.1 1.4 18-10.1z"/><path fill-rule="evenodd" clip-rule="evenodd" fill="#f5cab3" d="M228.7 134l-16.9 48.6L195 195l6.7-21.6 6.2-35.9 12.7 5.6z"/><path class="st161" d="M183.4 172l11.6 23 9.2-21.2z"/><path class="st162" d="M148 119.8l25.4-9.6 15.4-12.3h-14.6l-16 3.7z"/><path fill-rule="evenodd" clip-rule="evenodd" fill="#e0d187" d="M165.9 119.8H148l40.8-21.9-2.5 9.1-11.2 4z"/><path class="st162" d="M160.9 129.9l-5.6-10.1h10.6z"/><path class="st157" d="M165 140.5l-4.1-10.6 5-10.1z"/><path fill-rule="evenodd" clip-rule="evenodd" fill="#d6c27d" d="M197.2 107.7l-22.1 3.3 13.7-13.1 9.6 3.3z"/><path class="st165" d="M217.4 98.7l-28.6-.8 8.4 9.8 17.3-2.9z"/><path class="st162" d="M226.2 111.3l-8.8-12.6-7 3.1 13.3 9.7z"/><path class="st155" d="M197.2 107.7l11.9 4.6 17.1-1-15.8-9.5z"/><path fill-rule="evenodd" clip-rule="evenodd" fill="#e0cf85" d="M238.9 143.1l-5.3-12-12.1-15.8-12.8-6.2-2.4 8.3 2.3 15.7 7.5 7.5 18.8 12.7z"/><path fill-rule="evenodd" clip-rule="evenodd" fill="#fff7ab" d="M226.2 111.3l13.5 18.8-6.1 1-16.3-12.3 1.2-5.4z"/><path class="st162" d="M208.7 109.1l8.6 9.7 5.2-4.3 3.7-3.2zM238.9 143.1l.8-13-22.4-11.3L229 132zM222.9 150.7l-15-13.2-10.7-29.8 9.2 5.5 3.5 10.3L219 135l17.1 15.3z"/><path class="st168" d="M236.2 161.1l-.1-10.8-13.2.4z"/><path class="st155" d="M240.7 165.3l-4.5-4.2-20.8-17 4.6 15 12.3 10.8 8.6 1.8z"/><path class="st168" d="M227.1 176.3l11.1-2.8 2.7-1.8-20.9-12.6z"/><path class="st162" d="M228.7 187.6l9.5-14.1-7.8-1.2-10.4-13.2-3.5 20.1z"/><path class="st168" d="M211.8 182.6l16.9 5-8.8-13.5.1-15z"/><path class="st158" d="M215.4 144.1l-1.7 7.7 4.4 1z"/><path class="st161" d="M220 159.1l-6.3-7.3 4.4 1z"/><path class="st168" d="M207.9 137.5l3.2 9 3.4 1.5.9-3.9z"/><path class="st165" d="M176.8 94.9l-18.6 6.7 30.6-3.7zM208.7 109.1l-11.5-1.4 12.7 15.8z"/><path fill="#2a2b2a" d="M140.1 331.8l63.4-8.9 56.5 8.3-56.5 4.8z" opacity=".102"/><path class="st171" d="M191.3 232.2l-9.6-14.8.9-16.3 25.6-.4-4.7 19.3z"/><path fill="#594266" d="M188.1 243.3l3.2-16.1 10.9-22 16.9-20.7 17.8-1.4-3.6 16.8 1.4 15.7-5.1 20-13 4.4z"/><path class="st31" d="M168.2 181.3v57.3l23.1.9v-12.3l-3.8-21.7-11.1-19.3z"/><path class="st171" d="M168.2 247.9l14.3 16.2 15.5 4.3 16-6.4 7.6-10.6 4.5-5.9-35 4.1z"/><path class="st173" d="M167 287.4l1.2-39.5 29.8 20.5-7.9 21.9-1.6 11.2-10.5 17.1-4.1-11.7z"/><path class="st171" d="M190.1 290.3l-.8 29.6-9.2 2.1-10.4-6.2-2.7-28.4zM189.3 328.1v3.2H154v-3.2l19.7-2.1z"/><path class="st174" d="M154 328.1l15.7-12.3 19.6 4.1v8.2z"/><path class="st171" d="M243.7 315l1.8 2.6-26.7 17-1.6-2.2 10.9-12.8z"/><path class="st174" d="M217.2 332.4l2.1-16.5 19.2-9.1 5.2 8.2z"/><path class="st173" d="M204.2 291.9l-6.2-23.5 24.7-15.7 4.8-5.6 1.7 37.7-5.5 25.6z"/><path class="st171" d="M204.2 291.9l25-7.1 9.3 22-19.2 9.1z"/><path class="st175" d="M236.9 183.1l8.6 38.7-10.5 3.3-6.8-2.5z"/><path class="st145" d="M188.5 210.9l-1.4 3.3M169 211.3l7.2 26.9M193.3 211.9l-2.1 27.7"/><path class="st176" d="M191.1 263.3l.2-23.8 35.7-3.8.9 23.5z"/><path fill="#a587b8" d="M168.2 238.6l23.1.9-.2 23.8-23.5-1.8z"/><path class="st178" d="M186.4 242.4l-9.6-4.5-4.4 1.5-4.3 5.8 4.8 8.5 8.7-4.8z"/><path class="st179" d="M189.3 253.4l-2.9-11-13.5 11.3 8.7 5.8z"/><path class="st175" d="M168.2 181.3l-15.5 37.2 9.7 5.1 7.2-1.2z"/><path class="st176" d="M169.3 247.5l-16.6-29 17.1 3.9 7 15.5z"/><path class="st178" d="M204 241.3l10.4-2.3 3.9 2.4 3 6.6-6.6 7.3-7.4-6.6z"/><path class="st179" d="M198.8 251.5l5.2-10.2 10.7 14-9.7 3.7z"/><path class="st31" d="M219.7 250l25.8-28.2-17.3.8-13.8 16.4z"/><path class="st175" d="M191.3 233.4l-.2 29.9-21.6-1.6.1-6.5 17.1-22z"/><path class="st31" d="M191.3 233.4l-.2 29.9 28.1-3.2v-5.2l-22.7-21.5z"/><path class="st123" d="M184 177.1l1.8-.5L195 195l18.6-17.5 4.5.6-13 22.2-18.4-1.6z"/><path class="st37" d="M233.3 181.3l-6.6-11.8-9.7-1.8-3.4 9.8 4.5.6zM184 177.1l1.7-.5-2.3-4.6-6.3-.6-1.3 2.2 8.2 3.5z"/><path class="st173" d="M185.8 192.2l9.2 2.8 15.2-3.4-8 13.6-14.7.3z"/><path class="st5" d="M202.2 205.2l15.9-27.1 8.6-8.6 10.2 13.6-26.1 21.3-7.8 5.5z"/><path class="st37" d="M210.8 204.4l-19.5 22.8 10.9-22z"/><path class="st5" d="M187.5 205.5l-3.5-28.4-6.9-5.7-8.9 9.9 12.6 22.8 4.8 3.5z"/><path class="st37" d="M187.5 205.5l-6.7-1.4 10.5 23.1z"/><path fill="#e8beac" d="M175.8 163l-4.1-6.5 19.8 2-7.6 5.6z"/><path class="st135" d="M176.9 159.8l-1.9-3.1 12.7 1.4-5 2.5z"/><path class="st124" d="M179.4 155.7l-3.3-1.3-4.4 2.1 19.8 2-8.2-3.7z"/><path class="st123" d="M167.6 131l6.6 5.4 4.1 11.1 2.6 1.3 2.6-1 10.3-10.5 10.7-3.9-5.2-3-10.5 1.5-5.2 4.1-1.9 1.3-1.1-1.7-1.9-4.1-6.9-2.7-4.2 2.2"/><path fill="#fff1e8" d="M180.6 135.6l-2.3 11.9 5.2.3.1-11.8z"/><path class="st124" d="M180.8 150.3l-2.5-2.8 5.2.3-2.7 2.5"/><path class="st182" d="M167.6 131l3.1-2.3 8.2.3-.2 2.5-7.4-.6-3.7.1M188.9 129l-.1 2.9 10.7.5 5 1-4.1-3.3z"/><path class="st140" d="M172.3 135.6c1.4.1 2.4 1.2 2.4 2.6-.1 1.4-1.3 2.4-2.6 2.4-1.4-.1-2.4-1.2-2.4-2.6 0-1.5 1.2-2.5 2.6-2.4zM191.6 136.5c1.4.1 2.4 1.3 2.4 2.6-.1 1.4-1.3 2.4-2.6 2.4-1.4-.1-2.4-1.3-2.4-2.6 0-1.4 1.2-2.5 2.6-2.4z"/><path class="st101" d="M215.4 144.1l-7.5-6.6-.9-2.7-3.8-1.4-36.6-2-1.2 1.1-.1 2.2 1.2-1-.7 10.1 13.2.7 2.4-9.6 2.3.4.1 9.1 17.9 1.3 1.3-9.1 12.2 8.8.2-1.3zm-37.8-1.1l-9.9-.5.3-9.3 11.5 1.3-1.9 8.5zm21.3 1.1l-12.8-.6.2-9 14.1 1.3-1.5 8.3z"/></g><g id="Brazil"><path class="st183" d="M440.4 120.5l3.2-40.5-36.8-2.9-1.1 70.6 12.5 23.2 22.2-12.8 7.2-33.8z"/><path id="XMLID_46_" class="st184" d="M406.7 152.8l-7.2-7.2 33.2-.1-13 13.6"/><path id="XMLID_43_" class="st185" d="M433.6 112.4l-1.3 12.5-6.5 6.1-22 11.7 23.3 6.5 5.6-3.7 6.9-23.9 3.3-11.7z"/><path class="st186" d="M389.6 68.4l30.8 1.8 8.4-1.6 1.4 11.4-2.3 3-.5 46.5-11.8 16-30-4.3-4.7-16.4-.5-45.6z"/><path class="st183" d="M408.2 100.5l-3.1 1.7-1.7 3.9v1.5l-2.8 6 2.8 11.1 7-14.8 8.5-2 2.2-1 4.8-4.8-11.2-2.4zM395.5 124.7l-4.4-10.1-2.9-5.6-5.2-3.4-2.6-7.3 2.1-1.1 9.9 2.2 1.9 2.1.1 1.7 1 3.9 3.6 7.9-3.5 9.7z"/><path class="st186" d="M451.3 107.4l-3.5 15.9-8.2-1.7 1.9-15.2z"/><path id="XMLID_35_" class="st184" d="M448.4 110.7l-6 7.4 1.5-8z"/><path class="st187" d="M380.9 124.8l5.9 13.1-.9-8.3 9.6-4.9h7.9l10.5 3.9 1.8 8.4 11.7-7.5-.3 19.7-46.2-2.7z"/><path id="XMLID_2_" class="st186" d="M411.5 130.2l-.9 9.9-6.6 4.9-2.7-3.9-4.2-.3-2.6 3.3-4.2-3.4-1.9-10.5 10.5 1.2z"/><path id="XMLID_52_" fill="#eac8ae" d="M395.7 107.1l-.2 17.6h7.9v-17.1z"/><path id="XMLID_49_" class="st185" d="M403.4 124.7l-4.1 2.8-3.8-2.8z"/><path id="XMLID_60_" class="st189" d="M393.8 97.9l.6 3.7-13.9-3.3 2.8-1.8z"/><path id="XMLID_56_" class="st189" d="M405.1 102.2l.8-3.5h14.7l5.3 3.4z"/><path class="st184" d="M447.8 123.3l-1.7 7.9-6.5-9.6z"/><path class="st61" d="M410.4 107.4c1.3.1 2.2 1.1 2.2 2.4-.1 1.3-1.1 2.2-2.4 2.2-1.3-.1-2.2-1.1-2.2-2.4.1-1.3 1.1-2.3 2.4-2.2zM388.7 106.4c1.3.1 2.2 1.1 2.2 2.4-.1 1.3-1.1 2.2-2.4 2.2-1.3-.1-2.2-1.1-2.2-2.4 0-1.3 1.1-2.3 2.4-2.2z"/><path class="st183" d="M409.3 122.1l11 9.3-2.2-7.3zM391.2 121.6l-7.3 9.2 2.2-7.8z"/><path class="st190" d="M381.7 73.8l-8.3 10.6 6.9 18.3z"/><path class="st185" d="M427.5 81.9L397.6 67l-1.7-9.8-11.9 11 6.9 12.6 13.2-.8z"/><path class="st189" d="M384 68.2l-7 11.5 13.9 1.1z"/><path class="st185" d="M447.9 79.6l6 12.6-3.9 11.1-8.7 3-5.2 4.5.9-6.7-4.8-1.8 3-11.1-7.7-9.3z"/><path class="st190" d="M414.9 75.6l-1.1-11.4-5.2-9.2-11 12zM384 68.2l43.5 13.7-36.6-1.1z"/><path class="st187" d="M397.6 67l46.2 5.1 4.1 7.5-20.4 2.3z"/><path class="st189" d="M395.9 57.2l16.9 11.5-15.2-1.7z"/><path class="st190" d="M423.1 64.9l5.8 5.5 14.9 1.7z"/><path class="st189" d="M412.8 68.7l16.1 1.7-5.8-5.5-14.5-9.9zM447.9 79.6l-15.7 22.7-4.7-20.4z"/><path class="st190" d="M432.2 102.3l2 1.7-.6 8.4 6 9.2 1.9-15.2 9.8 1 2.6-15.2z"/><path class="st41" d="M353.4 294.8l67.4-9.5 64.5 15.9-65.9 6.3z"/><path class="st191" d="M429.6 283.8l-3.6-21 10.8-23 11.6 17.7-1.9 23.3-6.4 8z"/><path class="st191" d="M402.5 212.5l-9.7 8.8 1.5 9.3 10.6 9.2 17.9 4.5 22.5-2 5.5-9.4-6.3-17.5-22.8-10.2z"/><path class="st192" d="M422.8 244.3l28-11.4-2.4 24.6-22.4 5.3z"/><path class="st193" d="M364.9 190.1l-4.5-1.7-2.6-7.2 6.5-2.6 8.2 1.6 5.6 7.1z"/><path class="st194" d="M414.5 167.7l5.5 26.4-10.1 27-.9 8.8-16.2-8.6 1.3-15.8-3.1-23.1 8.6-26 7.1-3.6z"/><path class="st195" d="M419.7 159.1l-5.2 8.6-7.8-14.9z"/><path class="st196" d="M404.6 161.6l9.9 6.1-7.8-14.9.1 1.9z"/><path class="st197" d="M402.9 172.7l6.6-8 5 3-2.5 28.5z"/><path fill-rule="evenodd" clip-rule="evenodd" fill="#e2a942" d="M422.7 166.7l-3-7.6-5.2 8.6-5.5 62.2 11.7.6 6.1-39.4z"/><path fill-rule="evenodd" clip-rule="evenodd" fill="#f2bd68" d="M427.7 159l-5 7.7-2 63.8 10.9.1 7-36.5-8.4-24.3z"/><path class="st194" d="M431.6 230.6l-.8-36-.6-24.8 12.2-21.6 17.7 12.1-4.7 27.9.3 18.5-18.7 17.2z"/><path class="st200" d="M458.9 167.4l-3.5 20.8.3 18.5-9.7 8.9 1.5-45.8z"/><path class="st200" d="M436.8 154.9l5.6-6.7 17.7 12.1-2 11.9-10.6-2.4-6.9-5.8z"/><path class="st196" d="M440.6 164l1.8-15.8-12.2 21.6z"/><path class="st197" d="M441.4 173.7l-6-6.8-5.2 2.9.6 24.8zM386.9 183.5l4.4-22.5 8.3-4.6-5.5 49.4-11.6-11.4z"/><path class="st201" d="M370.1 179.5l16.8 4 7.2 22.3-29.9-14.4z"/><path class="st191" d="M401.7 278.1l-3.5-22.2 11.8-15.4 10 22.3-3.1 20.7-13 5.2z"/><path class="st192" d="M398.2 255.9l-3.9-25.3 28.5 13.7-2.8 18.5z"/><path class="st51" d="M383.5 292.7l18.2-14.6 15.2 5.4.2 8.9-17.1 1.7z"/><path class="st195" d="M442.4 148.2L427.7 159l2.5 10.8z"/><path class="st40" d="M383.6 295.6l-.1-2.9 33.6-.3v3.4z"/><path class="st51" d="M426.9 299.1l2.7-15.3 16.9-3 5.3 18.2-12.7 2.6z"/><path class="st40" d="M426.8 302.5h25V299h-24.9z"/><path fill-rule="evenodd" clip-rule="evenodd" fill="#9e7157" d="M363.4 189.5l-3-1.1 3.8-9.5 3.2.5-2.8 4.1z"/><path class="st53" d="M377.1 160.7l3 11.9 18.5-5.5-3.4-12.8-1.6-4.9-37.4 13-1.1 8.6.9 4.7 7.2 3.7 8.7-3.8 4.5-1.8-3.4-11.9z"/><path class="st53" d="M406.9 152l-13.3-2.6 1.6 4.9 12.6 3z"/><path d="M393.2 158.2l1.4 4.8-2.4 4.8V163l-1.4-3.9 2.4-.9zm-3.8-3.2l2.6-1 .6 2.1-2.5 1.1-.7-2.2z" fill-rule="evenodd" clip-rule="evenodd" fill="#999"/><path class="st193" d="M357.8 191.7l-8.8-8.1 6.1-12.6 9.1 7.9-1.9 4.7-1.9 4.8z"/><path class="st204" d="M372.5 180.2l-7.9 3.3-2-6 9.3-1.9zM348.7 163.3l6.4 7.7 5-5.1-7.8-7.1z"/><path class="st197" d="M453.3 194.2l5.6 4.9 15.7 1.3-14.5-40.1-12.6 9.5z"/><path class="st201" d="M455.2 222.7l19.4-22.3-21.3-6.2-7.3 21.3.1 8.7z"/><path class="st204" d="M455.2 222.7l-4.4 10.2-13.8-9 9-8.4z"/><path class="st183" d="M388.4 130.2h23.1l-2.4 8.4-18-.7z"/><path class="st18" d="M392.3 136.4l-2.1-4.4 8.2.4h10.5l-.7 4.8z"/><path class="st183" d="M388.7 90.8l11.5 2.9 18.1-2.4-2.5-.2-15.2 1.3-8.7-1.9z"/><path fill-rule="evenodd" clip-rule="evenodd" fill="#b58b00" d="M422.4 175.7l-8.6-.8-2 23.3 9.8 1z"/><path fill-rule="evenodd" clip-rule="evenodd" fill="#bc8f2d" d="M422.4 175.7l7.9-1.2.6 24.4-9.3.3z"/></g><g id="Indonesia"><path class="st74" d="M1123.2 192.6l-12.4 13.1-6 4.6-7.6-5.8-5.1-12.4 1.5-4.3 2-5.3-.5-2.8 11.1-5.5 13.9-53 18.7 2.8 4.5 10.8-5.3 15.2-7.8 10.6.8 9.6z"/><path class="st131" d="M1048.8 327.4l62.5 14.6 54.3-12.3-52.5-16.6-44 9.3z"/><path class="st142" d="M1066.1 252.4l8.7 3.1-6.3-9.9z"/><path class="st139" d="M1080.2 288.8l-2.7-25v-7.3l30 20.4-2.3 14.9-3.5 2.8-19.2-2.8z"/><path class="st140" d="M1082.8 314.3l-2.6-25.5 25 3-3.5 22.7-8.3 5.3z"/><path class="st139" d="M1114.3 292.6l-9.6-21.7 13.4-7.9 21 1.3 1.5 24.7-2.8 4.8-17.4 2.1z"/><path class="st140" d="M1124.9 318.6l-10.6-26 26.3-3.6 1.7 29.1-7.8 3.8z"/><path class="st65" d="M1121.9 329.9l3-11.3 17.4-.5 3.1 12.1-10.6 2.3z"/><path class="st61" d="M1121.9 334.2v-4.3l23.5.3v4z"/><path class="st65" d="M1101.7 324.1v-9.6l-18.9-.2-13.7 9.1 8.1 2.7z"/><path class="st61" d="M1101.7 328.2v-4.1l-32.6-.7v4z"/><path fill="#454444" d="M1139.1 264.3l-31.6 12.6-30-13.1v-7.3h62.1z"/><path class="st208" d="M1077.5 263.8l3.7-18.2 8.9-41.4 10.4-1.9 38.8 45.6-13.1 10.1z"/><path class="st2" d="M1078 195.4l9.6-3.3 12.9 10.2-3.1 59.5-19.9 2 1.6-18.4z"/><path class="st18" d="M1061.8 230l11.4-33.1 4.8-1.5.8 28.8-11.9 7.5z"/><path class="st1" d="M1065.1 246.9l-3.3-16.9 17-5.8.8 14.9z"/><path class="st142" d="M1066.1 252.4l-1-5.5 14.5-7.8-.5 6.3-7.7 4.5-3.7-.5z"/><path class="st18" d="M1097.4 261.8l3.1-59.5 31.5-12 6.2 2.6 5.4 40.1-11.5 24.2z"/><defs><path id="SVGID_3_" d="M1138.2 192.9l-6.2-2.6-31.5 12-12.9-10.2-9.6 3.3 1.1 50-1.6 18.4 19.9-2 34.7-4.6 11.5-24.2z"/></defs><clipPath id="SVGID_4_"><use xlink:href="#SVGID_3_" overflow="visible"/></clipPath><g clip-path="url(#SVGID_4_)"><path class="st210" d="M1043.6 180.1h129.8v3.6h-129.8zM1044 187.1h129.8v3.6H1044zM1044.4 194h129.8v3.6h-129.8zM1044.8 201h129.8v2.4h-129.8zM1045.2 207.9H1175v3.6h-129.8zM1045.6 214.9h129.8v3.6h-129.8zM1046 221.8h129.8v3.6H1046zM1046.3 228.8h129.8v3.6h-129.8zM1046.7 235.7h129.8v3.6h-129.8zM1047.1 242.7h129.8v3.6h-129.8zM1047.5 249.6h129.8v3.6h-129.8zM1047.9 256.6h129.8v3.6h-129.8zM1048.3 263.5h129.8v3.6h-129.8zM1048.7 270.4h129.8v3.6h-129.8zM1049.1 277.4h129.8v3.6h-129.8zM1049.5 284.3h129.8v3.6h-129.8zM1049.9 291.3h129.8v3.6h-129.8z"/><path class="st210" d="M1055.5 172.2h3.6V302h-3.6zM1062.4 171.8h3.6v129.8h-3.6zM1069.4 171.4h3.6v129.8h-3.6zM1076.3 171h3.6v129.8h-3.6zM1083.3 170.6h3.6v129.8h-3.6zM1090.2 170.2h3.6V300h-3.6zM1100.7 298.4l-3.5 1.2V169.8l3.5-1.2zM1104.1 169.4h3.6v129.8h-3.6zM1111.1 169h3.6v129.8h-3.6zM1118 168.6h3.6v129.8h-3.6zM1124.9 168.2h3.6V298h-3.6zM1131.9 167.8h3.6v129.8h-3.6zM1138.8 167.4h3.6v129.8h-3.6zM1145.8 167h3.6v129.8h-3.6zM1152.7 166.6h3.6v129.8h-3.6zM1159.7 166.2h3.6V296h-3.6zM1166.6 165.8h3.6v129.8h-3.6z"/></g><path class="st142" d="M1115.6 213.6l.2 4.5h16.8v-4.5z"/><path class="st74" d="M1126.2 258l12.9 6.3-6.1-10.6-4.5.3z"/><path class="st75" d="M1139.1 264.3l3.7-4.8-12.1-9.6-2.2 4.1z"/><path class="st208" d="M1127.4 247.6l14.3 15.7 15.6-24.5-10.1-10.8-10.9 3z"/><path class="st142" d="M1127.4 247.6l14.3 15.7 5.3-6.8-16.3-14.9z"/><path class="st2" d="M1157.3 238.8l-21-7.8 1.9-38.1 11.1 4z"/><path class="st142" d="M1101 212.6c1.1 0 2 .9 2 2s-.9 2-2 2-2-.9-2-2 .9-2 2-2zM1101 223.8c1.1 0 2 .9 2 2s-.9 2-2 2-2-.9-2-2 .9-2 2-2zM1101 234.9c1.1 0 2 .9 2 2s-.9 2-2 2-2-.9-2-2 .9-2 2-2zM1101 246.1c1.1 0 2 .9 2 2s-.9 2-2 2-2-.9-2-2 .9-2 2-2z"/><path class="st74" d="M1069.2 250.6l8.3 13.2 1.6-18.4z"/><path class="st1" d="M1084.6 206.4l3-14.3 6-4.3 6.9 14.5zM1120.4 207.6l-19.9-5.3 25.4-18 6.1 6z"/><path class="st75" d="M1101.2 194.9l11.9-9.1-23.7-7.5-2.8 2.3z"/><path class="st76" d="M1069.9 118.9l-4.8 42.9 6.1 11.8 24.4 8.9 13.7-6 14.4-51.8 15.1-.7-20.7-17.7-30.5-1.5z"/><path class="st75" d="M1131 170.2l-6.3-9.6h5.5l3.1 2.7z"/><path class="st76" d="M1129 147.2l-4.3 13.4 8.6 2.7 4.7-13.3z"/><path class="st75" d="M1130.7 151.2l-1.5 5.3 4.8-4.5z"/><path class="st74" d="M1072 133l4.7-2 9.1 3.8-.3 6.5-2.5 10.6-3.5-10.1zM1092.7 136.2l-1 6.4.3 12.4 7.5-9.3 8.8-6.8-3.7-3.5z"/><path class="st140" d="M1084.8 129.3l1 5.5-13.8-1.8-.3-4.2zM1095 131.5l-2.3 4.7 15.6 2.7 1.3-3.1z"/><path class="st76" d="M1065.1 161.8l5.8 3.1 2.8-5.5 8.6-5.8 3.7 1.8 6-.4 6.2 9.2.7 5.4 13.1-3.7v12.8l-5.3 6.3-42.9-9.2z"/><path class="st74" d="M1112 165.9l-2.7 10.6-2.6 8.5 6.4.8 5-4.3 6.6-20.9z"/><path class="st56" d="M1065.1 161.8l5.8 3.1 2.8-5.5 8.6-5.8 3 4.1 6.7-2.7 6.2 9.2.7 5.4 13.1-3.7-5.3 19.1-42.9-9.2zM1112 165.9l-5.3 19.1 6.4.8 11.6-25.2z"/><path class="st75" d="M1078.2 163.4l-.2 1.7 11.6 1.8 4-1-.2-1.8-4.1.8z"/><path class="st61" d="M1079.7 141c1.1 0 2 .9 2 2s-.9 2-2 2-2-.9-2-2 .9-2 2-2zM1098.5 144.1c1.1 0 2 .9 2 2s-.9 2-2 2-2-.9-2-2 .9-2 2-2z"/><path class="st75" d="M1082.3 153.6l3.5-.7 6.2 2.1-6.7 2.7z"/><path class="st82" d="M1085.5 141.3l-3.2 12.3 9.7 1.4-.3-12.4z"/><path class="st74" d="M1071.2 145.8l5-1.5-2 2.5zM1101.8 147.9l1.5 3.1 3.8-.3zM1084.3 122.7l14.6.8-9.1.7z"/><defs><path id="SVGID_5_" d="M1132 190.3l-6.1-6-25.4 17.9-6.9-14.4-6 4.3-3 14.3 15.9-4.1 19.9 5.3z"/></defs><use xlink:href="#SVGID_5_" overflow="visible" fill="#dddddc"/><clipPath id="SVGID_6_"><use xlink:href="#SVGID_5_" overflow="visible"/></clipPath><g clip-path="url(#SVGID_6_)"><path class="st212" d="M1195.9 211.1l-116.3-55 1.6-5.9 116.3 55zM1193.1 217.5l-116.2-57.7 1.6-.5 116.2 55zM1190.4 221.2l-116.3-57.7 1.6-.5 116.3 55z"/><path transform="matrix(.4446 -.8957 .8957 .4446 451.1484 1121.9523)" class="st212" d="M1128.5 132.3h3.6v129.8h-3.6z"/><path transform="matrix(.4446 -.8957 .8957 .4446 443.8986 1123.0579)" class="st212" d="M1125.8 138.7h3.6v129.8h-3.6z"/><path transform="matrix(.4446 -.8957 .8957 .4446 436.6488 1124.1638)" class="st212" d="M1123.1 145.1h3.6v129.8h-3.6z"/><path class="st212" d="M1179.5 246.8l-116.3-57.7 1.6-4.4 116.3 57.7z"/><path transform="matrix(.4446 -.8957 .8957 .4446 422.1497 1126.3749)" class="st212" d="M1117.6 157.9h3.6v129.8h-3.6z"/><path transform="matrix(.4446 -.8957 .8957 .4446 414.8999 1127.4808)" class="st212" d="M1114.9 164.3h3.6v129.8h-3.6z"/><path transform="matrix(.4446 -.8957 .8957 .4446 407.6507 1128.5863)" class="st212" d="M1112.1 170.7h3.6v129.8h-3.6z"/><path transform="matrix(.4446 -.8957 .8957 .4446 400.4009 1129.6919)" class="st212" d="M1109.4 177.1h3.6v129.8h-3.6z"/><path transform="matrix(.4446 -.8957 .8957 .4446 393.1511 1130.7977)" class="st212" d="M1106.7 183.5h3.6v129.8h-3.6z"/><path transform="matrix(.4446 -.8957 .8957 .4446 385.9019 1131.9033)" class="st212" d="M1103.9 189.9h3.6v129.8h-3.6z"/><path transform="matrix(.4446 -.8957 .8957 .4446 378.652 1133.0089)" class="st212" d="M1101.2 196.3h3.6v129.8h-3.6z"/><path transform="matrix(.4446 -.8957 .8957 .4446 371.4023 1134.1147)" class="st212" d="M1098.5 202.7h3.6v129.8h-3.6z"/><path transform="matrix(.4446 -.8957 .8957 .4446 364.153 1135.2203)" class="st212" d="M1095.7 209.1h3.6v129.8h-3.6z"/><path transform="rotate(-63.602 1094.8063993 280.3657667)" class="st212" d="M1093 215.5h3.6v129.8h-3.6z"/><path class="st212" d="M1040.9 266.2l-3.2-1.6 57.7-113.6 3.2 1.6zM1047.3 266.3l-3.2 1.1 57.7-113.6 3.2-1.1zM1053.7 269l-3.2-1.6 57.7-113.6 3.2-1z"/><path transform="matrix(.4446 -.8957 .8957 .4446 413.2386 1092.1278)" class="st212" d="M1022.4 211h129.8v3.6h-129.8z"/><path class="st212" d="M1066.5 273.3l-3.2-.4 57.7-116.3 3.2.4z"/><path transform="matrix(.4446 -.8957 .8957 .4446 415.4497 1106.627)" class="st212" d="M1035.2 216.5H1165v3.6h-129.8z"/><path transform="matrix(.4446 -.8957 .8957 .4446 416.5556 1113.8767)" class="st212" d="M1041.6 219.2h129.8v3.6h-129.8z"/><path transform="matrix(.4446 -.8957 .8957 .4446 417.6611 1121.1262)" class="st212" d="M1048 222h129.8v3.6H1048z"/><path transform="matrix(.4446 -.8957 .8957 .4446 418.7667 1128.3757)" class="st212" d="M1054.4 224.7h129.8v3.6h-129.8z"/><path transform="matrix(.4446 -.8957 .8957 .4446 419.8726 1135.6255)" class="st212" d="M1060.8 227.4h129.8v3.6h-129.8z"/><path transform="matrix(.4446 -.8957 .8957 .4446 420.9781 1142.8751)" class="st212" d="M1067.2 230.2H1197v3.6h-129.8z"/><path transform="matrix(.4446 -.8957 .8957 .4446 422.0837 1150.1246)" class="st212" d="M1073.6 232.9h129.8v3.6h-129.8z"/><path transform="matrix(.4446 -.8957 .8957 .4446 423.1896 1157.3744)" class="st212" d="M1080 235.6h129.8v3.6H1080z"/><path transform="matrix(.4446 -.8957 .8957 .4446 424.2951 1164.6239)" class="st212" d="M1086.4 238.4h129.8v3.6h-129.8z"/><path transform="matrix(.4446 -.8957 .8957 .4446 425.4007 1171.8734)" class="st212" d="M1092.8 241.1h129.8v3.6h-129.8z"/><path transform="matrix(.4446 -.8957 .8957 .4446 426.5066 1179.1232)" class="st212" d="M1099.2 243.8H1229v3.6h-129.8z"/><path transform="rotate(-63.602 1170.5203902 248.3690811)" class="st212" d="M1105.6 246.6h129.8v3.6h-129.8z"/></g><g><defs><path id="SVGID_7_" d="M1132 190.3l-6.1-6-25.4 17.9-6.9-14.4-6 4.3-3 14.3 15.9-4.1 19.9 5.3z"/></defs><use xlink:href="#SVGID_7_" overflow="visible" fill="#27788c"/><clipPath id="SVGID_8_"><use xlink:href="#SVGID_7_" overflow="visible"/></clipPath><g clip-path="url(#SVGID_8_)"><path class="st210" d="M1195.9 211.1l-116.3-55 1.6-5.9 116.3 55zM1193.1 217.5l-116.2-57.7 1.6-.5 116.2 55zM1190.4 221.2l-116.3-57.7 1.6-.5 116.3 55z"/><path transform="matrix(.4446 -.8957 .8957 .4446 451.1484 1121.9523)" class="st210" d="M1128.5 132.3h3.6v129.8h-3.6z"/><path transform="matrix(.4446 -.8957 .8957 .4446 443.8986 1123.0579)" class="st210" d="M1125.8 138.7h3.6v129.8h-3.6z"/><path transform="matrix(.4446 -.8957 .8957 .4446 436.6488 1124.1638)" class="st210" d="M1123.1 145.1h3.6v129.8h-3.6z"/><path class="st210" d="M1179.5 246.8l-116.3-57.7 1.6-4.4 116.3 57.7z"/><path transform="matrix(.4446 -.8957 .8957 .4446 422.1497 1126.3749)" class="st210" d="M1117.6 157.9h3.6v129.8h-3.6z"/><path transform="matrix(.4446 -.8957 .8957 .4446 414.8999 1127.4808)" class="st210" d="M1114.9 164.3h3.6v129.8h-3.6z"/><path transform="matrix(.4446 -.8957 .8957 .4446 407.6507 1128.5863)" class="st210" d="M1112.1 170.7h3.6v129.8h-3.6z"/><path transform="matrix(.4446 -.8957 .8957 .4446 400.4009 1129.6919)" class="st210" d="M1109.4 177.1h3.6v129.8h-3.6z"/><path transform="matrix(.4446 -.8957 .8957 .4446 393.1511 1130.7977)" class="st210" d="M1106.7 183.5h3.6v129.8h-3.6z"/><path transform="matrix(.4446 -.8957 .8957 .4446 385.9019 1131.9033)" class="st210" d="M1103.9 189.9h3.6v129.8h-3.6z"/><path transform="matrix(.4446 -.8957 .8957 .4446 378.652 1133.0089)" class="st210" d="M1101.2 196.3h3.6v129.8h-3.6z"/><path transform="matrix(.4446 -.8957 .8957 .4446 371.4023 1134.1147)" class="st210" d="M1098.5 202.7h3.6v129.8h-3.6z"/><path transform="matrix(.4446 -.8957 .8957 .4446 364.153 1135.2203)" class="st210" d="M1095.7 209.1h3.6v129.8h-3.6z"/><path transform="rotate(-63.602 1094.8063993 280.3657667)" class="st210" d="M1093 215.5h3.6v129.8h-3.6z"/><path class="st210" d="M1040.9 266.2l-3.2-1.6 57.7-113.6 3.2 1.6zM1047.3 266.3l-3.2 1.1 57.7-113.6 3.2-1.1zM1053.7 269l-3.2-1.6 57.7-113.6 3.2-1z"/><path transform="matrix(.4446 -.8957 .8957 .4446 413.2386 1092.1278)" class="st210" d="M1022.4 211h129.8v3.6h-129.8z"/><path class="st210" d="M1066.5 273.3l-3.2-.4 57.7-116.3 3.2.4z"/><path transform="matrix(.4446 -.8957 .8957 .4446 415.4497 1106.627)" class="st210" d="M1035.2 216.5H1165v3.6h-129.8z"/><path transform="matrix(.4446 -.8957 .8957 .4446 416.5556 1113.8767)" class="st210" d="M1041.6 219.2h129.8v3.6h-129.8z"/><path transform="matrix(.4446 -.8957 .8957 .4446 417.6611 1121.1262)" class="st210" d="M1048 222h129.8v3.6H1048z"/><path transform="matrix(.4446 -.8957 .8957 .4446 418.7667 1128.3757)" class="st210" d="M1054.4 224.7h129.8v3.6h-129.8z"/><path transform="matrix(.4446 -.8957 .8957 .4446 419.8726 1135.6255)" class="st210" d="M1060.8 227.4h129.8v3.6h-129.8z"/><path transform="matrix(.4446 -.8957 .8957 .4446 420.9781 1142.8751)" class="st210" d="M1067.2 230.2H1197v3.6h-129.8z"/><path transform="matrix(.4446 -.8957 .8957 .4446 422.0837 1150.1246)" class="st210" d="M1073.6 232.9h129.8v3.6h-129.8z"/><path transform="matrix(.4446 -.8957 .8957 .4446 423.1896 1157.3744)" class="st210" d="M1080 235.6h129.8v3.6H1080z"/><path transform="matrix(.4446 -.8957 .8957 .4446 424.2951 1164.6239)" class="st210" d="M1086.4 238.4h129.8v3.6h-129.8z"/><path transform="matrix(.4446 -.8957 .8957 .4446 425.4007 1171.8734)" class="st210" d="M1092.8 241.1h129.8v3.6h-129.8z"/><path transform="matrix(.4446 -.8957 .8957 .4446 426.5066 1179.1232)" class="st210" d="M1099.2 243.8H1229v3.6h-129.8z"/><path transform="rotate(-63.602 1170.5203902 248.3690811)" class="st210" d="M1105.6 246.6h129.8v3.6h-129.8z"/></g></g><g><defs><path id="SVGID_9_" d="M1061.8 230l11.4-33.1 4.8-1.5.8 28.8z"/></defs><clipPath id="SVGID_10_"><use xlink:href="#SVGID_9_" overflow="visible"/></clipPath><g clip-path="url(#SVGID_10_)"><path transform="rotate(-67.772 1127.47667026 199.06184066)" class="st210" d="M1125.8 134.2h3.6V264h-3.6z"/><path transform="rotate(-67.772 1125.21569461 205.64232185)" class="st210" d="M1123.5 140.7h3.6v129.8h-3.6z"/><path transform="rotate(-67.772 1122.95486786 212.22290304)" class="st210" d="M1121.2 147.3h3.6v129.8h-3.6z"/><path transform="rotate(-67.772 1120.6940933 218.8027631)" class="st210" d="M1119 153.9h3.6v129.8h-3.6z"/><path transform="rotate(-67.772 1118.43291877 225.38321875)" class="st210" d="M1116.7 160.5h3.6v129.8h-3.6z"/><path transform="rotate(-67.772 1116.17221646 231.9637755)" class="st210" d="M1114.4 167.1h3.6v129.8h-3.6z"/><path transform="rotate(-67.772 1113.91131746 238.54366)" class="st210" d="M1112.2 173.6h3.6v129.8h-3.6z"/><path transform="rotate(-67.772 1111.65034181 245.1241412)" class="st210" d="M1109.9 180.2h3.6V310h-3.6z"/><path transform="rotate(-67.772 1109.38951506 251.70472239)" class="st210" d="M1107.7 186.8h3.6v129.8h-3.6z"/><path transform="rotate(-67.772 1107.12869051 258.2846569)" class="st210" d="M1105.4 193.4h3.6v129.8h-3.6z"/><path transform="rotate(-67.772 1104.86764042 264.8650881)" class="st210" d="M1103.1 200h3.6v129.8h-3.6z"/><path transform="rotate(-67.772 1102.60681366 271.44566928)" class="st210" d="M1100.9 206.5h3.6v129.8h-3.6z"/><path transform="rotate(-67.772 1100.34596466 278.02547935)" class="st210" d="M1098.6 213.1h3.6v129.8h-3.6z"/><path transform="rotate(-67.772 1098.08493902 284.60603499)" class="st210" d="M1096.4 219.7h3.6v129.8h-3.6z"/><path transform="rotate(-67.772 1095.82416226 291.18654173)" class="st210" d="M1094.1 226.3h3.6v129.8h-3.6z"/><path transform="rotate(-67.772 1093.56333771 297.76647624)" class="st210" d="M1091.8 232.9h3.6v129.8h-3.6z"/><path transform="rotate(-67.772 1091.30228762 304.34690743)" class="st210" d="M1089.6 239.4h3.6v129.8h-3.6z"/><path transform="rotate(-67.772 1059.20116223 230.76111328)" class="st210" d="M994.4 229h129.8v3.6H994.4z"/><path transform="rotate(-67.772 1065.78137008 233.02201337)" class="st210" d="M1000.9 231.2h129.8v3.6h-129.8z"/><path transform="rotate(-67.772 1072.36145349 235.28293792)" class="st210" d="M1007.5 233.5h129.8v3.6h-129.8z"/><path transform="rotate(-67.772 1078.94203468 237.54376467)" class="st210" d="M1014.1 235.8h129.8v3.6h-129.8z"/><path transform="rotate(-67.772 1085.52231698 239.80471477)" class="st210" d="M1020.7 238h129.8v3.6h-129.8z"/><path transform="rotate(-67.772 1092.10240038 242.06563932)" class="st210" d="M1027.3 240.3h129.8v3.6h-129.8z"/><path transform="rotate(-67.772 1098.68303157 244.32639163)" class="st210" d="M1033.8 242.5h129.8v3.6h-129.8z"/><path transform="rotate(-67.772 1105.26326387 246.58741617)" class="st210" d="M1040.4 244.8h129.8v3.6h-129.8z"/><path transform="rotate(-67.772 1111.84334728 248.84834072)" class="st210" d="M1047 247.1h129.8v3.6H1047z"/><path transform="rotate(-67.772 1118.42397847 251.10909302)" class="st210" d="M1053.6 249.3h129.8v3.6h-129.8z"/><path transform="rotate(-67.772 1125.00413632 253.37006757)" class="st210" d="M1060.2 251.6H1190v3.6h-129.8z"/><path transform="rotate(-67.772 1131.58426972 255.63091767)" class="st210" d="M1066.7 253.8h129.8v3.6h-129.8z"/><path transform="rotate(-67.772 1138.16485091 257.89174442)" class="st210" d="M1073.3 256.1h129.8v3.6h-129.8z"/><path transform="rotate(-67.772 1144.74513321 260.15269452)" class="st210" d="M1079.9 258.4h129.8v3.6h-129.8z"/><path transform="rotate(-67.772 1151.32521662 262.41361907)" class="st210" d="M1086.5 260.6h129.8v3.6h-129.8z"/><path transform="rotate(-67.772 1157.9057978 264.67444582)" class="st210" d="M1093.1 262.9h129.8v3.6h-129.8z"/><path transform="rotate(-67.772 1164.4860801 266.93539592)" class="st210" d="M1099.6 265.1h129.8v3.6h-129.8z"/></g></g><g><defs><path id="SVGID_11_" d="M1157.3 238.8l-21-7.8 1.9-38.1 11.1 4z"/></defs><clipPath id="SVGID_12_"><use xlink:href="#SVGID_11_" overflow="visible"/></clipPath><g clip-path="url(#SVGID_12_)"><path transform="rotate(-67.772 1137.40027077 198.66506248)" class="st210" d="M1135.7 133.8h3.6v129.8h-3.6z"/><path transform="rotate(-67.772 1135.13922068 205.24549368)" class="st210" d="M1133.4 140.3h3.6v129.8h-3.6z"/><path transform="rotate(-67.772 1132.87839392 211.82607487)" class="st210" d="M1131.2 146.9h3.6v129.8h-3.6z"/><path transform="rotate(-67.772 1130.61769382 218.40598493)" class="st210" d="M1128.9 153.5h3.6v129.8h-3.6z"/><path transform="rotate(-67.772 1128.35659373 224.98649057)" class="st210" d="M1126.6 160.1h3.6v129.8h-3.6z"/><path transform="rotate(-67.772 1126.09581697 231.56699731)" class="st210" d="M1124.4 166.7h3.6v129.8h-3.6z"/><path transform="rotate(-67.772 1123.83499242 238.14693182)" class="st210" d="M1122.1 173.2h3.6V303h-3.6z"/><path transform="rotate(-67.772 1121.57386788 244.72731302)" class="st210" d="M1119.8 179.8h3.6v129.8h-3.6z"/><path transform="rotate(-67.772 1119.31319002 251.3079942)" class="st210" d="M1117.6 186.4h3.6v129.8h-3.6z"/><path transform="rotate(-67.772 1117.05229102 257.88787872)" class="st210" d="M1115.3 193h3.6v129.8h-3.6z"/><path transform="rotate(-67.772 1114.79124093 264.46830991)" class="st210" d="M1113.1 199.6h3.6v129.8h-3.6z"/><path transform="rotate(-67.772 1112.53046417 271.04881665)" class="st210" d="M1110.8 206.1h3.6v129.8h-3.6z"/><path transform="rotate(-67.772 1110.26963962 277.62875117)" class="st210" d="M1108.5 212.7h3.6v129.8h-3.6z"/><path transform="rotate(-67.772 1108.00861398 284.2093068)" class="st210" d="M1106.3 219.3h3.6v129.8h-3.6z"/><path transform="rotate(-67.772 1105.74783722 290.78981355)" class="st210" d="M1104 225.9h3.6v129.8h-3.6z"/><path transform="rotate(-67.772 1103.48701267 297.36974806)" class="st210" d="M1101.8 232.5h3.6v129.8h-3.6z"/><path transform="rotate(-67.772 1101.22588813 303.95012925)" class="st210" d="M1099.5 239h3.6v129.8h-3.6z"/><path transform="rotate(-67.772 1069.12483719 230.3643851)" class="st210" d="M1004.3 228.6h129.8v3.6h-129.8z"/><path transform="rotate(-67.772 1075.7049706 232.6252352)" class="st210" d="M1010.9 230.8h129.8v3.6h-129.8z"/><path transform="rotate(-67.772 1082.28512845 234.88620974)" class="st210" d="M1017.4 233.1h129.8v3.6h-129.8z"/><path transform="rotate(-67.772 1088.86575964 237.14696205)" class="st210" d="M1024 235.4h129.8v3.6H1024z"/><path transform="rotate(-67.772 1095.44591749 239.4079366)" class="st210" d="M1030.6 237.6h129.8v3.6h-129.8z"/><path transform="rotate(-67.772 1102.02607534 241.66891114)" class="st210" d="M1037.2 239.9H1167v3.6h-129.8z"/><path transform="rotate(-67.772 1108.60670653 243.92966344)" class="st210" d="M1043.8 242.1h129.8v3.6h-129.8z"/><path transform="rotate(-67.772 1115.18678994 246.190588)" class="st210" d="M1050.3 244.4h129.8v3.6h-129.8z"/><path transform="rotate(-67.772 1121.76707224 248.45153809)" class="st210" d="M1056.9 246.7h129.8v3.6h-129.8z"/><path transform="rotate(-67.772 1128.34765343 250.71236484)" class="st210" d="M1063.5 248.9h129.8v3.6h-129.8z"/><path transform="rotate(-67.772 1134.92778683 252.97321494)" class="st210" d="M1070.1 251.2h129.8v3.6h-129.8z"/><path transform="rotate(-67.772 1141.50794468 255.23418949)" class="st210" d="M1076.7 253.4h129.8v3.6h-129.8z"/><path transform="rotate(-67.772 1148.08845143 257.49496624)" class="st210" d="M1083.3 255.7h129.8v3.6h-129.8z"/><path transform="rotate(-67.772 1154.66873373 259.75591634)" class="st210" d="M1089.8 258h129.8v3.6h-129.8z"/><path transform="rotate(-67.772 1161.24889158 262.01689089)" class="st210" d="M1096.4 260.2h129.8v3.6h-129.8z"/><path transform="rotate(-67.772 1167.82939832 264.27766764)" class="st210" d="M1103 262.5h129.8v3.6H1103z"/><path transform="rotate(-67.772 1174.40960617 266.53856774)" class="st210" d="M1109.6 264.7h129.8v3.6h-129.8z"/></g></g><g><defs><path id="SVGID_13_" d="M1065.1 246.9l-3.3-16.9 17-5.8.8 14.9z"/></defs><clipPath id="SVGID_14_"><use xlink:href="#SVGID_13_" overflow="visible"/></clipPath><g clip-path="url(#SVGID_14_)"><path transform="rotate(-82.351 1116.45912283 198.0752836)" class="st210" d="M1114.6 133.2h3.6V263h-3.6z"/><path transform="rotate(-82.351 1115.92830902 205.01367278)" class="st210" d="M1114.1 140.1h3.6v129.8h-3.6z"/><path transform="rotate(-82.351 1115.39775953 211.95199046)" class="st210" d="M1113.6 147.1h3.6v129.8h-3.6z"/><path transform="rotate(-82.351 1114.8670099 218.88972948)" class="st210" d="M1113 154h3.6v129.8h-3.6z"/><path transform="rotate(-82.351 1114.33619609 225.82811865)" class="st210" d="M1112.5 160.9h3.6v129.8h-3.6z"/><path transform="rotate(-82.351 1113.80565377 232.76654349)" class="st210" d="M1112 167.9h3.6v129.8h-3.6z"/><path transform="rotate(-82.351 1113.27485414 239.70433967)" class="st210" d="M1111.4 174.8h3.6v129.8h-3.6z"/><path transform="rotate(-82.351 1112.74404032 246.64272884)" class="st210" d="M1110.9 181.8h3.6v129.8h-3.6z"/><path transform="rotate(-82.351 1112.213548 253.58109652)" class="st210" d="M1110.4 188.7h3.6v129.8h-3.6z"/><path transform="rotate(-82.351 1111.68274837 260.5188927)" class="st210" d="M1109.9 195.6h3.6v129.8h-3.6z"/><path transform="rotate(-82.351 1111.1519274 267.45717471)" class="st210" d="M1109.3 202.6h3.6v129.8h-3.6z"/><path transform="rotate(-82.351 1110.62138507 274.39559956)" class="st210" d="M1108.8 209.5h3.6v129.8h-3.6z"/><path transform="rotate(-82.351 1110.0906926 281.33338858)" class="st210" d="M1108.3 216.4h3.6v129.8h-3.6z"/><path transform="rotate(-82.351 1109.55982163 288.27172775)" class="st210" d="M1107.7 223.4h3.6v129.8h-3.6z"/><path transform="rotate(-82.351 1109.02922214 295.21010259)" class="st210" d="M1107.2 230.3h3.6v129.8h-3.6z"/><path transform="rotate(-82.351 1108.49842251 302.14789878)" class="st210" d="M1106.7 237.3h3.6v129.8h-3.6z"/><path transform="rotate(-82.351 1107.9676087 309.08628794)" class="st210" d="M1106.1 244.2h3.6V374h-3.6z"/><path transform="rotate(-82.351 1058.36378117 245.9525395)" class="st210" d="M993.4 244.2h129.8v3.6H993.4z"/><path transform="rotate(-82.351 1065.30184884 246.4833748)" class="st210" d="M1000.4 244.7h129.8v3.6h-129.8z"/><path transform="rotate(-82.351 1072.23991652 247.0142101)" class="st210" d="M1007.3 245.2h129.8v3.6h-129.8z"/><path transform="rotate(-82.351 1079.17834136 247.54475242)" class="st210" d="M1014.2 245.8H1144v3.6h-129.8z"/><path transform="rotate(-82.351 1086.11635188 248.07553773)" class="st210" d="M1021.2 246.3H1151v3.6h-129.8z"/><path transform="rotate(-82.351 1093.05441239 248.60626587)" class="st210" d="M1028.1 246.8h129.8v3.6h-129.8z"/><path transform="rotate(-82.351 1099.9928944 249.13685819)" class="st210" d="M1035.1 247.4h129.8v3.6h-129.8z"/><path transform="rotate(-82.351 1106.9309049 249.6676435)" class="st210" d="M1042 247.9h129.8v3.6H1042z"/><path transform="rotate(-82.351 1113.86896542 250.19837163)" class="st210" d="M1048.9 248.4h129.8v3.6h-129.8z"/><path transform="rotate(-82.351 1120.80734027 250.72897112)" class="st210" d="M1055.9 249h129.8v3.6h-129.8z"/><path transform="rotate(-82.351 1127.74545794 251.25974926)" class="st210" d="M1062.8 249.5h129.8v3.6h-129.8z"/><path transform="rotate(-82.351 1134.68352562 251.79058456)" class="st210" d="M1069.7 250h129.8v3.6h-129.8z"/><path transform="rotate(-82.351 1141.6218933 252.32107688)" class="st210" d="M1076.7 250.6h129.8v3.6h-129.8z"/><path transform="rotate(-82.351 1148.56001814 252.85196219)" class="st210" d="M1083.6 251.1h129.8v3.6h-129.8z"/><path transform="rotate(-82.351 1155.49807865 253.38269033)" class="st210" d="M1090.6 251.6h129.8v3.6h-129.8z"/><path transform="rotate(-82.351 1162.43639633 253.91323981)" class="st210" d="M1097.5 252.1h129.8v3.6h-129.8z"/><path transform="rotate(-82.351 1169.37451401 254.44401795)" class="st210" d="M1104.4 252.7h129.8v3.6h-129.8z"/></g></g><g><defs><path id="SVGID_15_" d="M1127.4 247.6l14.3 15.7 15.6-24.5-21-7.8z"/></defs><clipPath id="SVGID_16_"><use xlink:href="#SVGID_15_" overflow="visible"/></clipPath><g clip-path="url(#SVGID_16_)"><path transform="rotate(-82.351 1114.99734622 198.46191044)" class="st210" d="M1113.2 133.6h3.6v129.8h-3.6z"/><path transform="rotate(-82.351 1114.4665324 205.40029961)" class="st210" d="M1112.6 140.5h3.6v129.8h-3.6z"/><path transform="rotate(-82.351 1113.93598292 212.33861729)" class="st210" d="M1112.1 147.5h3.6v129.8h-3.6z"/><path transform="rotate(-82.351 1113.40529045 219.27640631)" class="st210" d="M1111.6 154.4h3.6v129.8h-3.6z"/><path transform="rotate(-82.351 1112.87441948 226.21474548)" class="st210" d="M1111 161.3h3.6v129.8h-3.6z"/><path transform="rotate(-82.351 1112.34387715 233.15317032)" class="st210" d="M1110.5 168.3h3.6v129.8h-3.6z"/><path transform="rotate(-82.351 1111.81302036 240.0909165)" class="st210" d="M1110 175.2h3.6V305h-3.6z"/><path transform="rotate(-82.351 1111.28225655 247.02924851)" class="st210" d="M1109.5 182.1h3.6v129.8h-3.6z"/><path transform="rotate(-82.351 1110.75171423 253.96767335)" class="st210" d="M1108.9 189.1h3.6v129.8h-3.6z"/><path transform="rotate(-82.351 1110.2209646 260.90541238)" class="st210" d="M1108.4 196h3.6v129.8h-3.6z"/><path transform="rotate(-82.351 1109.69015078 267.84380155)" class="st210" d="M1107.9 203h3.6v129.8h-3.6z"/><path transform="rotate(-82.351 1109.15960846 274.78222639)" class="st210" d="M1107.3 209.9h3.6v129.8h-3.6z"/><path transform="rotate(-82.351 1108.62885883 281.71996541)" class="st210" d="M1106.8 216.8h3.6v129.8h-3.6z"/><path transform="rotate(-82.351 1108.09804502 288.65835458)" class="st210" d="M1106.3 223.8h3.6v129.8h-3.6z"/><path transform="rotate(-82.351 1107.56744553 295.59672942)" class="st210" d="M1105.7 230.7h3.6v129.8h-3.6z"/><path transform="rotate(-82.351 1107.03670306 302.5345756)" class="st210" d="M1105.2 237.7h3.6v129.8h-3.6z"/><path transform="rotate(-82.351 1106.50593925 309.47290761)" class="st210" d="M1104.7 244.6h3.6v129.8h-3.6z"/><path transform="rotate(-82.351 1056.90200455 246.33916633)" class="st210" d="M992 244.6h129.8v3.6H992z"/><path transform="rotate(-82.351 1063.84007223 246.87000163)" class="st210" d="M998.9 245.1h129.8v3.6H998.9z"/><path transform="rotate(-82.351 1070.7781899 247.40077977)" class="st210" d="M1005.8 245.6h129.8v3.6h-129.8z"/><path transform="rotate(-82.351 1077.71650759 247.93132926)" class="st210" d="M1012.8 246.2h129.8v3.6h-129.8z"/><path transform="rotate(-82.351 1084.6545681 248.4620574)" class="st210" d="M1019.7 246.7h129.8v3.6h-129.8z"/><path transform="rotate(-82.351 1091.59269294 248.9929427)" class="st210" d="M1026.7 247.2h129.8v3.6h-129.8z"/><path transform="rotate(-82.351 1098.53106062 249.52343502)" class="st210" d="M1033.6 247.8h129.8v3.6h-129.8z"/><path transform="rotate(-82.351 1105.4691283 250.05427033)" class="st210" d="M1040.5 248.3h129.8v3.6h-129.8z"/><path transform="rotate(-82.351 1112.40724597 250.58504847)" class="st210" d="M1047.5 248.8h129.8v3.6h-129.8z"/><path transform="rotate(-82.351 1119.34562082 251.11564795)" class="st210" d="M1054.4 249.3h129.8v3.6h-129.8z"/><path transform="rotate(-82.351 1126.28368133 251.6463761)" class="st210" d="M1061.3 249.9h129.8v3.6h-129.8z"/><path transform="rotate(-82.351 1133.56910397 252.20205451)" class="st210" d="M1068.6 250.4h129.8v3.6h-129.8z"/><path class="st210" d="M1133.7 317.3l-3.4-.4 16.8-128.7 3.4.5zM1140.6 317.8l-3.5-.5 16.8-128.6 3.5.5z"/><path transform="rotate(-82.351 1154.03624488 253.76926716)" class="st210" d="M1089.1 252h129.8v3.6h-129.8z"/><path transform="rotate(-82.351 1160.97466972 254.29980948)" class="st210" d="M1096 252.5h129.8v3.6H1096z"/><path transform="rotate(-82.351 1167.9127374 254.83064479)" class="st210" d="M1103 253.1h129.8v3.6H1103z"/></g></g></g></svg>